<?xml version="1.0" standalone="no"?>
<!DOCTYPE svg PUBLIC "-//W3C//DTD SVG 20010904//EN"
 "http://www.w3.org/TR/2001/REC-SVG-20010904/DTD/svg10.dtd">
<svg version="1.0" xmlns="http://www.w3.org/2000/svg"
 width="100.000000pt" height="130.000000pt" viewBox="0 0 820.000000 667.000000"
 preserveAspectRatio="xMidYMid meet">

<g transform="translate(0.000000,667.000000) scale(0.100000,-0.100000)"
fill="#000000" stroke="none">
<path d="M2180 6059 c-258 -66 -438 -251 -511 -524 -31 -115 -31 -315 -1 -438
l22 -89 -41 -46 c-53 -60 -95 -145 -114 -227 -15 -62 -20 -69 -113 -162 -374
-373 -599 -791 -683 -1270 -19 -106 -23 -162 -22 -328 1 -110 5 -225 10 -255
8 -53 6 -60 -45 -180 -77 -182 -166 -424 -282 -765 -92 -270 -103 -309 -107
-390 l-6 -91 36 -31 c52 -45 128 -60 232 -43 44 7 114 16 156 20 78 8 150 34
196 70 46 36 73 83 99 170 58 191 87 280 93 280 3 -1 40 -46 81 -102 92 -124
282 -323 409 -430 599 -502 1367 -799 2245 -869 192 -15 694 -6 866 16 397 50
764 142 1095 275 668 268 1209 699 1524 1213 44 71 58 87 78 87 33 0 73 45 95
104 9 25 25 94 34 154 9 59 31 168 50 242 18 74 40 189 49 255 24 188 30 215
109 475 84 280 176 643 176 698 0 51 -21 77 -77 98 -27 10 -61 26 -78 36 -25
15 -53 18 -170 18 -77 0 -156 -5 -175 -10 -40 -12 -30 -22 -125 124 -54 82
-65 107 -65 142 0 73 -96 231 -169 279 -28 19 -52 26 -89 27 -46 0 -53 3 -101
52 l-52 53 12 47 c7 28 9 78 6 120 -18 245 -209 348 -476 257 l-93 -33 -172
85 c-449 223 -903 353 -1448 414 -191 21 -684 24 -868 5 -287 -30 -567 -81
-797 -147 -67 -19 -125 -35 -128 -35 -3 0 -5 34 -5 76 0 129 -38 239 -118 341
-22 27 -50 69 -61 92 -31 61 -94 117 -157 141 -73 27 -219 27 -324 -1z m323
-203 c44 -18 153 -135 177 -188 48 -110 51 -247 7 -340 l-25 -53 -1 50 c-3
164 -82 288 -254 400 -42 28 -77 55 -77 61 0 18 41 65 64 74 32 13 73 12 109
-4z m-331 -100 c4 -6 8 -21 8 -34 0 -26 41 -72 65 -72 25 0 38 -49 25 -91 -7
-20 -11 -69 -9 -111 5 -89 38 -161 90 -196 67 -47 186 -6 230 78 l19 35 0 -41
c0 -58 -45 -142 -98 -181 -29 -22 -38 -33 -26 -33 33 0 101 40 125 75 l25 34
34 -46 c42 -56 125 -115 200 -143 l55 -21 1 -77 c0 -103 20 -153 139 -353 103
-172 208 -379 246 -489 32 -90 34 -265 4 -325 -24 -48 -61 -71 -98 -61 -38 9
-50 72 -34 186 l7 55 -23 -66 c-37 -108 -74 -148 -172 -185 -193 -72 -574 72
-791 299 -206 215 -263 397 -223 719 7 63 7 97 -1 129 -15 54 -65 105 -112
114 -34 6 -37 11 -48 56 -17 71 4 218 46 318 13 31 16 33 32 18 9 -8 29 -19
45 -22 24 -6 27 -12 27 -47 0 -83 62 -156 157 -184 37 -11 60 -12 85 -5 33 9
32 9 -15 10 -54 1 -79 11 -120 50 -40 37 -57 73 -57 123 0 52 4 58 53 80 47
22 77 71 76 123 l0 40 -19 -42 c-20 -46 -75 -89 -126 -99 -26 -5 -38 -1 -63
23 -29 25 -32 34 -32 86 0 78 24 146 73 202 70 79 171 115 200 71z m340 -300
c29 -13 62 -31 73 -39 19 -15 18 -15 -15 -22 -57 -10 -130 27 -130 67 0 23 9
23 72 -6z m2007 -135 c11 -7 0 -26 -46 -88 -99 -129 -233 -338 -289 -450 l-53
-105 -119 -59 c-66 -32 -150 -81 -187 -109 -37 -28 -69 -50 -70 -48 -4 4 212
365 289 483 72 111 170 237 249 321 l59 64 77 0 c42 0 82 -4 90 -9z m-749 -4
c0 -2 -15 -34 -34 -73 -46 -94 -92 -241 -127 -409 -16 -77 -31 -144 -32 -150
-2 -5 -11 15 -21 45 -26 81 -89 196 -150 276 l-54 72 32 48 c18 27 59 74 90
105 l56 57 88 12 c48 6 94 13 102 15 23 4 50 5 50 2z m1203 -58 c31 -7 57 -15
56 -18 0 -3 -39 -33 -87 -66 -47 -33 -153 -125 -235 -205 -156 -152 -204 -210
-126 -151 148 111 351 233 539 326 l110 54 53 -15 c103 -30 177 -56 177 -62
-1 -4 -76 -59 -168 -122 -91 -63 -223 -157 -292 -208 l-125 -94 -45 22 c-143
70 -294 69 -585 -6 l-29 -7 34 44 c97 121 254 266 392 361 64 43 258 157 269
158 3 0 31 -5 62 -11z m1677 -286 c54 -60 62 -187 16 -255 -42 -63 -87 -42
-107 49 -16 68 -30 89 -55 78 -10 -4 -44 -8 -74 -9 -68 -1 -149 -39 -219 -102
-55 -49 -116 -122 -109 -130 3 -2 85 -11 184 -19 263 -23 314 -34 314 -71 0
-8 -9 -14 -20 -14 -11 0 -29 -9 -40 -20 -21 -21 -41 -21 -169 1 -30 5 -131 9
-225 9 l-170 0 -43 -46 c-64 -69 -239 -431 -341 -706 l-22 -58 23 -4 c12 -3
81 -8 152 -11 139 -7 495 -41 502 -49 3 -2 -6 -50 -18 -105 l-23 -101 -41 0
c-22 0 -80 5 -130 10 -49 5 -274 21 -500 36 -788 53 -1519 32 -2068 -58 -95
-15 -131 -18 -139 -10 -14 14 -22 122 -11 139 9 12 209 50 383 73 119 16 119
16 68 50 -146 97 -168 338 -51 539 38 65 147 175 223 226 245 161 606 254 786
200 89 -26 173 -121 174 -195 0 -80 -54 -159 -152 -217 -68 -42 -166 -67 -221
-58 -79 14 -150 65 -132 95 3 6 37 10 74 10 121 0 223 46 256 116 16 34 16 39
2 70 -41 85 -193 105 -360 47 -163 -57 -271 -142 -331 -261 -116 -230 -78
-388 112 -474 49 -22 164 -26 234 -8 161 42 355 146 387 208 54 104 212 192
345 192 78 0 121 -21 166 -82 19 -26 38 -44 42 -40 4 4 11 35 14 69 6 51 3 69
-15 106 -37 77 -140 127 -233 113 -62 -9 -112 -44 -116 -79 -5 -38 -42 -61
-87 -53 -63 12 -59 67 10 132 65 63 137 87 265 88 121 1 166 -11 220 -60 60
-54 85 -122 85 -229 0 -102 -12 -144 -61 -215 -24 -36 -34 -60 -34 -89 0 -45
-14 -60 -64 -68 -27 -4 -37 -2 -42 10 -5 13 -15 11 -67 -14 -34 -16 -71 -30
-82 -31 -35 -3 195 -15 307 -17 l107 -1 -24 25 c-29 28 -30 45 -11 135 39 183
134 424 221 561 32 50 55 92 53 94 -8 9 -302 -15 -428 -35 -144 -22 -220 -25
-220 -11 0 15 4 16 163 60 202 55 275 69 428 83 l130 11 87 85 c158 153 336
271 463 307 33 9 88 14 142 12 86 -2 90 -3 117 -34z m-842 14 c21 -12 20 -14
-35 -41 -86 -41 -443 -240 -439 -244 2 -2 45 13 95 32 150 59 464 156 505 156
6 0 -7 -15 -29 -32 -22 -18 -60 -52 -85 -75 -45 -41 -46 -41 -155 -52 -203
-19 -512 -93 -623 -150 -23 -12 -42 -18 -42 -14 0 5 -14 22 -30 40 -17 18 -30
34 -30 37 0 8 295 155 425 211 152 67 365 144 395 144 14 0 35 -5 48 -12z
m1184 -544 c29 -34 98 -157 98 -175 0 -11 -35 -54 -78 -97 -58 -58 -97 -87
-152 -114 -135 -65 -158 -58 -62 18 128 103 162 178 107 243 -40 47 -31 102
20 130 29 16 50 14 67 -5z m-543 -44 c74 -12 114 -30 158 -72 87 -83 25 -220
-126 -278 -111 -43 -319 -36 -370 12 -49 46 -1 139 73 139 47 0 55 -17 20 -45
-28 -22 -28 -22 -7 -34 30 -15 88 -14 158 5 106 27 145 68 125 130 -14 42 -55
64 -119 64 -57 0 -191 -45 -239 -80 -72 -52 -138 -156 -148 -234 -10 -68 1
-95 44 -113 64 -27 161 -21 312 21 143 40 253 56 264 38 23 -38 -260 -147
-436 -168 -124 -14 -341 75 -384 157 -12 25 -13 37 -3 67 24 77 86 179 148
245 93 99 162 127 366 151 61 7 102 6 164 -5z m-2190 -202 c6 -26 27 -63 51
-90 56 -63 127 -96 226 -105 l79 -7 -80 -42 c-163 -84 -289 -106 -356 -60 -18
12 -44 38 -57 57 -27 40 -25 87 8 155 21 42 96 135 110 135 4 0 13 -19 19 -43z
m3448 -326 c19 -12 21 -40 8 -93 -32 -131 -118 -448 -164 -610 -69 -242 -141
-620 -171 -893 -13 -123 -26 -145 -83 -145 -23 0 -67 -7 -97 -15 -30 -8 -77
-15 -103 -15 l-48 0 -33 73 c-18 39 -76 162 -129 272 -52 110 -116 259 -141
330 -26 72 -62 167 -81 212 -19 45 -35 89 -35 97 0 9 -4 16 -8 16 -11 0 -43
-183 -122 -685 -47 -295 -64 -383 -77 -392 -18 -14 -188 -18 -232 -6 -23 6
-23 9 -17 72 3 36 33 239 65 451 33 212 71 471 86 575 31 222 70 424 85 439
14 14 279 24 307 12 22 -9 49 -58 73 -131 7 -22 41 -98 76 -168 36 -72 84
-192 110 -275 48 -151 110 -302 125 -302 5 0 9 10 9 23 0 27 79 350 119 490
17 56 53 200 81 320 52 222 81 319 101 344 9 10 43 13 149 12 76 -1 142 -4
147 -8z m-6338 -81 c-61 -78 -63 -80 -106 -80 -52 0 -53 5 -14 87 l30 62 48 4
c116 9 111 17 42 -73z m465 -56 c9 -9 14 -25 11 -37 -11 -50 -25 -269 -36
-540 -15 -408 1 -710 72 -1345 21 -182 22 -204 8 -217 -11 -11 -49 -19 -120
-25 -57 -5 -114 -12 -125 -15 -20 -6 -23 -1 -32 57 -18 100 -31 229 -46 426
-7 100 -16 185 -19 189 -8 7 -546 -134 -563 -148 -11 -9 -147 -405 -194 -566
-24 -84 -35 -93 -114 -93 -30 0 -86 -7 -125 -15 -72 -15 -101 -12 -101 9 0 19
201 614 268 791 113 303 213 521 339 743 35 62 109 199 164 304 135 256 250
425 313 461 26 14 153 35 228 36 39 1 61 -4 72 -15z m1686 1 c0 -8 -7 -15 -16
-15 -14 0 -14 3 -4 15 7 8 14 15 16 15 2 0 4 -7 4 -15z m-1450 -20 c27 -14 51
-21 54 -16 13 20 58 -5 117 -65 l63 -64 -26 -27 c-38 -41 -46 -62 -41 -102 4
-32 1 -38 -22 -51 -17 -9 -31 -11 -39 -5 -7 6 -50 35 -94 65 l-82 55 0 118 c0
74 4 117 10 117 6 0 33 -11 60 -25z m643 -82 c20 -6 21 -15 5 -82 -10 -46 -10
-53 7 -65 17 -12 17 -15 2 -55 -19 -47 -22 -126 -6 -168 5 -15 22 -40 37 -55
l26 -28 -46 0 c-35 0 -51 6 -70 25 -24 23 -47 82 -49 121 0 17 -2 17 -11 -3
-16 -33 -1 -111 28 -140 30 -30 30 -29 -1 -37 -27 -7 -80 15 -87 36 -3 9 -17
8 -57 -5 -29 -9 -62 -17 -73 -17 -27 0 -69 24 -102 58 l-28 30 33 18 c19 9 69
29 113 44 78 26 79 27 92 69 14 48 64 106 99 115 18 5 24 15 29 52 3 26 6 60
6 76 0 25 3 29 18 23 9 -4 25 -10 35 -12z m557 2 c17 -9 30 -18 30 -21 0 -2
-9 -22 -20 -44 -35 -68 -21 -182 25 -218 33 -26 31 -32 -6 -32 -57 0 -96 27
-115 78 -31 89 -33 90 -33 29 -1 -59 10 -93 37 -113 26 -19 -34 -28 -69 -10
-27 14 -36 13 -92 -4 -34 -11 -89 -20 -123 -20 -34 0 -76 -5 -93 -11 -23 -8
-36 -8 -43 -1 -16 16 -14 121 3 136 8 8 73 28 146 46 131 32 132 32 139 64 22
106 127 166 214 121z m3828 -163 c51 -15 53 -17 46 -46 -9 -46 -10 -46 -74
-46 l-59 0 -21 46 c-30 68 -27 78 18 70 20 -4 61 -15 90 -24z m-2378 -149 c-8
-4 -90 -32 -181 -64 l-167 -58 -70 30 c-112 46 -207 62 -346 56 -183 -7 -309
-50 -455 -155 -65 -47 -76 -51 -89 -39 -11 12 -13 30 -7 84 l7 70 81 11 c223
31 441 49 697 58 96 3 177 8 179 10 2 2 86 4 185 3 100 0 174 -3 166 -6z m781
-82 c70 -74 87 -112 68 -148 -8 -14 -130 -139 -272 -277 -155 -150 -289 -291
-336 -351 -43 -55 -110 -138 -149 -184 -86 -102 -127 -159 -119 -168 4 -3 127
1 274 10 l268 15 29 -26 c57 -54 86 -161 48 -181 -9 -5 -78 -14 -152 -20 -74
-7 -227 -25 -340 -41 -253 -36 -340 -45 -374 -36 -38 9 -104 72 -111 106 -14
64 51 216 150 355 117 163 347 422 545 613 l75 73 -45 -6 c-107 -16 -301 -69
-380 -104 -95 -44 -153 -62 -168 -52 -16 10 -92 160 -92 181 0 10 5 22 10 25
32 20 410 139 552 175 149 37 427 98 453 99 5 1 35 -26 66 -58z m249 49 c13 0
13 -1 0 -10 -23 -15 -47 -12 -54 6 -5 13 -2 15 16 10 13 -3 30 -6 38 -6z m318
-192 c152 -77 173 -335 56 -690 -31 -95 -86 -182 -173 -271 -160 -167 -324
-226 -456 -163 -164 78 -204 260 -120 551 56 193 134 333 251 450 70 70 130
109 209 138 69 24 169 18 233 -15z m-1920 -3 c139 -33 255 -120 287 -214 11
-35 16 -87 17 -173 0 -175 -28 -282 -106 -401 -18 -29 -46 -76 -62 -106 -33
-63 -80 -101 -126 -106 -18 -1 -71 -23 -118 -48 -424 -227 -710 -166 -710 153
0 59 5 77 44 156 25 49 54 104 66 122 25 37 15 40 -37 12 -46 -25 -61 -17
-114 61 -38 57 -40 63 -28 88 18 36 265 279 342 336 81 61 143 92 231 115 87
23 227 25 314 5z m-909 -20 c61 -31 64 -99 11 -252 -93 -265 -170 -675 -170
-899 0 -109 -22 -130 -151 -141 -43 -4 -73 -1 -89 7 -22 12 -23 15 -17 99 4
47 27 254 52 459 25 205 45 385 45 400 0 24 -4 22 -35 -27 -68 -106 -106 -239
-184 -644 -22 -110 -43 -202 -47 -207 -5 -4 -53 -10 -107 -13 -92 -5 -98 -4
-110 16 -25 45 -13 480 18 635 10 47 -57 -89 -87 -178 -53 -154 -88 -343 -103
-553 -7 -88 -7 -89 -38 -102 -54 -22 -184 -48 -202 -41 -17 6 -18 24 -12 264
7 293 23 443 72 692 56 275 104 414 159 458 21 16 38 19 93 16 47 -2 69 -7 71
-16 1 -8 -13 -79 -33 -158 -19 -79 -35 -156 -35 -171 0 -26 5 -22 78 49 92 92
179 142 244 142 63 0 86 -26 70 -78 l-11 -37 27 35 c93 124 203 203 336 241
76 22 119 23 155 4z m3681 -975 l50 -100 -43 -39 c-222 -205 -569 -415 -857
-519 -196 -70 -322 -101 -500 -122 -52 -7 -98 -15 -101 -18 -5 -5 -88 -280
-125 -414 -8 -29 6 -21 101 53 193 152 424 306 650 434 203 116 553 278 650
301 29 7 28 5 -25 -52 -295 -314 -667 -562 -1110 -740 -143 -58 -188 -67 -251
-51 -22 6 -28 2 -40 -26 -10 -24 -21 -33 -43 -35 -23 -3 -28 -1 -22 13 22 59
21 62 -35 69 -29 4 -95 23 -145 42 -50 19 -94 34 -97 34 -2 0 -4 -53 -3 -117
l1 -118 -123 -21 c-107 -18 -124 -19 -129 -7 -10 27 7 235 27 332 l19 94 -59
64 c-68 72 -191 225 -238 295 -36 52 -114 209 -108 215 2 3 24 -1 47 -8 49
-13 177 -7 324 15 50 8 93 12 97 10 4 -3 45 -62 91 -132 100 -151 187 -307
262 -475 89 -196 92 -203 98 -187 11 28 107 347 107 353 0 3 -21 21 -47 39
-76 51 -248 224 -326 326 -38 51 -68 94 -66 96 4 3 161 21 269 31 l65 6 49
-173 c26 -95 54 -193 61 -218 l13 -45 12 30 c7 17 44 120 84 230 62 171 75
200 94 203 24 4 27 -4 12 -42 -14 -37 4 -33 35 8 20 26 38 37 78 47 68 16 145
50 202 89 26 18 49 29 52 26 8 -7 11 -4 -62 -53 -98 -65 -156 -95 -240 -128
l-80 -31 -58 -169 c-31 -93 -56 -173 -54 -178 1 -5 43 23 92 63 105 87 358
277 504 380 l103 73 63 -6 c93 -9 242 9 295 36 52 26 65 48 87 154 9 43 22 84
28 91 13 15 168 71 197 72 13 0 33 -30 68 -100z m-2740 -247 c13 -30 45 -71
85 -108 l64 -60 -20 -70 c-12 -39 -37 -102 -55 -142 -34 -72 -169 -265 -250
-357 l-43 -50 72 -76 c40 -41 97 -105 128 -140 59 -67 159 -207 159 -222 0 -4
-53 -8 -117 -8 -116 0 -118 0 -141 28 -65 77 -119 156 -158 235 l-44 87 -58
-39 c-70 -47 -124 -75 -179 -91 -24 -7 -43 -16 -43 -20 0 -3 35 -21 79 -38 71
-29 232 -119 255 -143 13 -12 -98 -12 -189 1 l-70 10 -72 78 c-40 42 -72 72
-73 66 0 -6 9 -36 19 -67 l20 -57 -29 0 c-27 0 -31 4 -48 63 -21 70 -9 66
-141 48 -188 -25 -421 31 -761 183 -208 93 -348 185 -496 325 -62 59 -66 65
-46 72 12 5 42 29 66 55 35 36 55 48 91 55 42 8 57 4 173 -42 190 -76 393
-176 432 -214 43 -41 106 -75 140 -75 26 0 237 -128 399 -243 91 -65 112 -76
110 -59 0 4 -30 92 -68 197 -43 122 -72 191 -81 192 -8 1 -54 5 -102 8 -75 6
-88 9 -88 25 0 14 12 19 60 24 52 6 64 4 91 -15 16 -11 32 -19 35 -17 2 3 -2
22 -9 44 -13 37 -6 84 12 84 4 0 19 -34 35 -77 32 -86 35 -85 60 27 10 41 35
150 57 242 l40 166 97 -5 c69 -4 120 -1 176 11 44 9 81 14 84 12 2 -3 -12 -36
-33 -73 -96 -177 -237 -354 -358 -452 -37 -30 -67 -59 -67 -64 0 -25 114 -326
121 -321 5 3 9 9 9 14 0 18 98 256 148 360 139 289 358 606 452 655 25 13 46
24 47 24 1 1 11 -20 23 -46z m-995 -289 c-18 -133 -22 -154 -35 -154 -14 0
-37 50 -44 90 -19 124 -20 118 22 139 21 11 44 27 52 36 7 8 14 14 16 12 2 -2
-3 -57 -11 -123z m-449 84 l46 -33 -7 -54 c-8 -67 -14 -81 -30 -81 -20 0 -64
122 -65 183 0 23 2 22 56 -15z m-175 -58 c17 -109 47 -155 136 -207 24 -14 43
-31 43 -39 0 -8 -2 -14 -5 -14 -18 0 -216 80 -304 123 l-104 50 37 31 c19 17
45 52 56 78 20 46 22 47 68 50 26 2 51 0 55 -3 4 -3 12 -34 18 -69z m447 -164
c-6 -165 -10 -176 -72 -176 -74 1 -86 49 -69 267 l6 82 66 3 c52 2 67 0 70
-12 2 -8 1 -82 -1 -164z m1455 -101 c117 -247 137 -315 149 -512 5 -91 7 -167
4 -170 -2 -3 -43 -8 -89 -10 l-85 -6 -11 34 c-49 153 -54 194 -58 524 -3 207
-1 316 5 310 5 -5 44 -82 85 -170z"/>
<path d="M2000 5629 c-31 -58 54 -141 98 -97 7 7 12 26 12 43 0 61 -85 102
-110 54z"/>
<path d="M5019 4022 c-83 -53 -104 -110 -65 -177 35 -60 79 -74 157 -51 65 18
129 68 129 99 -1 36 -35 101 -69 130 -44 36 -93 36 -152 -1z"/>
<path d="M4710 3777 c-24 -17 -69 -46 -99 -64 l-55 -33 91 0 c49 0 139 3 199
7 104 6 107 7 71 19 -32 11 -55 26 -146 91 -13 9 -24 6 -61 -20z"/>
<path d="M1451 3147 c-93 -156 -244 -462 -315 -640 -31 -76 -56 -140 -56 -142
0 -2 51 13 113 34 61 21 160 51 218 66 l106 29 -5 204 c-3 121 0 277 8 384 7
98 11 181 8 183 -2 2 -37 -51 -77 -118z"/>
<path d="M5872 2883 c-98 -48 -229 -254 -257 -406 -35 -183 -6 -287 80 -287
66 0 172 147 234 323 49 139 64 332 30 373 -15 18 -47 17 -87 -3z"/>
<path d="M3907 2869 c-58 -14 -129 -54 -197 -110 -34 -28 -60 -53 -58 -55 2
-2 31 8 64 21 70 29 178 33 244 10 54 -19 121 -73 168 -136 20 -27 40 -49 44
-49 12 0 28 72 28 125 -1 150 -126 233 -293 194z"/>
<path d="M3753 2452 c-97 -39 -173 -115 -173 -175 0 -35 24 -83 49 -97 38 -20
113 -11 178 19 70 34 183 107 183 120 0 12 -36 59 -84 109 -46 48 -80 53 -153
24z"/>
</g>
</svg>
