<svg id="Capa_1" enable-background="new 0 0 512.004 512.004" height="80" viewBox="0 0 512.004 512.004" width="80" xmlns="http://www.w3.org/2000/svg"><g><g><path d="m59.257 79.712v31.062h88.723c5.697-11.026 12.439-21.422 20.095-31.062z" fill="#dbedff"/><path d="m59.257 95.243v15.531h88.723c2.754-5.33 5.758-10.51 8.985-15.531z" fill="#b5dcff"/><path d="m59.257 315.983h108.41c-7.606-9.645-14.302-20.041-19.954-31.062h-88.456z" fill="#dbedff"/><path d="m59.257 300.452v15.531h108.41c-3.928-4.981-7.609-10.167-11.033-15.531z" fill="#b5dcff"/><circle cx="312.348" cy="198.101" fill="#ff9568" r="190.523"/><path d="m155.075 198.101c0-99.62 76.462-181.368 173.898-189.793-5.48-.474-11.022-.73-16.625-.73-105.223 0-190.523 85.3-190.523 190.523s85.3 190.523 190.523 190.523c5.603 0 11.145-.256 16.625-.73-97.436-8.425-173.898-90.173-173.898-189.793z" fill="#ff7c42"/><path d="m53.676 270.565c.515 0 1.017.053 1.508.141v-149.718c-.49.087-.992.141-1.508.141h-35.126c-.515 0-1.017-.053-1.508-.141v149.717c.49-.087.992-.141 1.508-.141h35.126z" fill="#dbedff"/><g><path d="m36.113 121.129h-17.563c-.515 0-1.017-.053-1.508-.14v149.717c.49-.087.992-.141 1.508-.141h17.563z" fill="#b5dcff"/></g><path d="m18.55 65.356h35.126c.515 0 1.017.053 1.508.141v-49.9c0-4.429-3.59-8.019-8.018-8.019h-22.105c-4.429 0-8.018 3.59-8.018 8.019v49.9c.49-.087.992-.141 1.507-.141z" fill="#dbedff"/><path d="m18.55 65.356h35.126c.515 0 1.017.053 1.508.141v-49.9c0-4.429-3.59-8.019-8.018-8.019h-22.105c-4.429 0-8.018 3.59-8.018 8.019v49.9c.49-.087.992-.141 1.507-.141z" fill="#dbedff"/><g><path d="m36.113 15.597c0-4.428 3.59-8.019 8.019-8.019h-19.071c-4.429 0-8.018 3.59-8.018 8.019v49.9c.49-.087.992-.141 1.508-.141h17.563v-49.759z" fill="#b5dcff"/></g><path d="m53.676 326.338h-35.126c-.515 0-1.017-.053-1.508-.141v170.366c0 4.429 3.59 8.019 8.018 8.019h22.104c4.428 0 8.018-3.59 8.018-8.019v-170.365c-.489.087-.991.14-1.506.14z" fill="#dbedff"/><g><path d="m36.113 496.563v-170.225h-17.563c-.515 0-1.017-.053-1.508-.141v170.366c0 4.428 3.589 8.019 8.018 8.019h19.071c-4.428 0-8.018-3.59-8.018-8.019z" fill="#b5dcff"/></g><path d="m53.676 262.565h-35.126c-4.739 0-8.581 3.842-8.581 8.581v58.611c0 4.739 3.842 8.581 8.581 8.581h35.126c4.739 0 8.581-3.842 8.581-8.581v-58.611c0-4.739-3.842-8.581-8.581-8.581z" fill="#7b6c79"/><path d="m53.676 57.356h-35.126c-4.739 0-8.581 3.842-8.581 8.581v58.611c0 4.739 3.842 8.581 8.581 8.581h35.126c4.739 0 8.581-3.842 8.581-8.581v-58.611c0-4.739-3.842-8.581-8.581-8.581z" fill="#7b6c79"/><path d="m36.113 329.757v-58.611c0-4.739 3.842-8.581 8.581-8.581h-26.144c-4.739 0-8.581 3.842-8.581 8.581v58.611c0 4.739 3.842 8.581 8.581 8.581h26.144c-4.739 0-8.581-3.842-8.581-8.581z" fill="#665e68"/><path d="m36.113 124.548v-58.611c0-4.739 3.842-8.581 8.581-8.581h-26.144c-4.739 0-8.581 3.842-8.581 8.581v58.611c0 4.739 3.842 8.581 8.581 8.581h26.144c-4.739 0-8.581-3.842-8.581-8.581z" fill="#665e68"/><circle cx="312.348" cy="198.101" fill="#ff7c42" r="160.28"/><path d="m185.318 198.101c0-82.906 62.947-151.108 143.655-159.426-5.465-.563-11.011-.854-16.625-.854-88.52 0-160.28 71.76-160.28 160.28s71.76 160.28 160.28 160.28c5.614 0 11.16-.291 16.625-.854-80.708-8.318-143.655-76.52-143.655-159.426z" fill="#ff6930"/><path d="m354.466 158.349h-95.645c-4.711 0-8.565 3.854-8.565 8.565v64.31c0 18.974 15.524 34.499 34.499 34.499h43.778c18.974 0 34.498-15.524 34.498-34.499v-64.31c.001-4.711-3.854-8.565-8.565-8.565z" fill="#eee1dd"/><path d="m293.805 231.224v-64.31c0-4.711 3.855-8.565 8.565-8.565h-43.548c-4.711 0-8.565 3.854-8.565 8.565v64.31c0 18.974 15.524 34.499 34.499 34.499h43.548c-18.975 0-34.499-15.525-34.499-34.499z" fill="#e1d3ce"/><path d="m381.827 271.743c1.509-3.291-.873-7.044-4.493-7.044h-137.378c-3.62 0-6.002 3.753-4.493 7.044 2.921 6.37 7.019 12.096 12.014 16.899 2.704 2.6 6.324 4.034 10.075 4.034h102.185c3.752 0 7.371-1.434 10.075-4.034 4.996-4.802 9.095-10.529 12.015-16.899z" fill="#eee1dd"/><path d="m295.791 271.744c-1.509-3.291.873-7.044 4.493-7.044h-60.328c-3.621 0-6.002 3.753-4.494 7.044 2.921 6.37 7.019 12.096 12.014 16.899 2.704 2.6 6.323 4.034 10.075 4.034h60.328c-3.752 0-7.371-1.434-10.075-4.034-4.993-4.803-9.092-10.53-12.013-16.899z" fill="#e1d3ce"/></g><g><path d="m370.113 169.237v-2.401c0-8.858-7.207-16.065-16.065-16.065h-95.645c-8.858 0-16.064 7.207-16.064 16.065v63.287c0 10.273 3.713 19.692 9.861 26.999h-12.662c-9.087 0-15.094 9.419-11.311 17.67 3.304 7.204 7.891 13.656 13.634 19.179 4.11 3.951 9.534 6.126 15.273 6.126h102.185c5.739 0 11.163-2.176 15.274-6.127 5.742-5.522 10.329-11.975 13.633-19.178 0-.001.001-.002.001-.002 3.785-8.265-2.237-17.668-11.312-17.668h-16.664c2.076-2.467 3.869-5.177 5.339-8.077 1.197.108 2.398.181 3.603.181 22.06 0 40.006-17.947 40.006-40.006.001-21.752-17.451-39.491-39.086-39.983zm-112.775-2.401c0-.567.497-1.065 1.064-1.065h95.645c.567 0 1.065.498 1.065 1.065v63.287c0 14.708-11.951 26.988-26.979 26.999h-43.817c-14.878-.01-26.979-12.118-26.979-26.999v-63.287zm115.426 105.286c-2.292 4.062-5.162 7.762-8.566 11.035-1.302 1.251-3.035 1.941-4.879 1.941h-102.185c-1.844 0-3.577-.689-4.878-1.94-3.404-3.274-6.275-6.974-8.567-11.036zm-2.852-37.907c.137-1.387.201-2.794.201-4.092v-45.893c13.363.486 24.087 11.509 24.087 24.99 0 13.548-10.83 24.614-24.288 24.995z"/><path d="m267.962 130.447c-2.465 3.329-1.765 8.026 1.563 10.491 3.331 2.466 8.026 1.765 10.491-1.563 4.129-5.576 9.328-18.91-.552-29.463-3.716-3.969.104-9.649.586-10.331 2.424-3.326 1.715-7.99-1.598-10.444-3.331-2.465-8.025-1.765-10.491 1.564-4.129 5.576-9.327 18.909.553 29.462 3.734 3.987-.139 9.702-.552 10.284z"/><path d="m300.198 130.447c-2.465 3.329-1.765 8.026 1.563 10.491 3.331 2.466 8.026 1.765 10.491-1.563 4.129-5.576 9.328-18.91-.552-29.463-3.716-3.969.104-9.649.586-10.331 2.424-3.326 1.715-7.99-1.598-10.444-3.331-2.465-8.025-1.765-10.491 1.564-4.129 5.576-9.327 18.909.553 29.462 3.733 3.987-.139 9.702-.552 10.284z"/><path d="m332.433 130.447c-2.465 3.329-1.765 8.026 1.563 10.491 3.331 2.466 8.026 1.765 10.491-1.563 4.129-5.576 9.328-18.91-.552-29.463-3.716-3.969.104-9.649.586-10.331 2.424-3.326 1.715-7.99-1.598-10.444-3.331-2.465-8.025-1.765-10.491 1.564-4.129 5.576-9.327 18.909.553 29.462 3.733 3.987-.139 9.702-.552 10.284z"/><path d="m479.709 198.023c0-92.514-75.266-167.78-167.78-167.78s-167.779 75.266-167.779 167.78 75.266 167.78 167.779 167.78c92.515 0 167.78-75.266 167.78-167.78zm-167.78 152.78c-84.243 0-152.779-68.537-152.779-152.78s68.536-152.78 152.779-152.78 152.78 68.537 152.78 152.78-68.537 152.78-152.78 152.78z"/><path d="m9.125 342.992v153.493c0 8.557 6.962 15.519 15.519 15.519h22.104c8.557 0 15.518-6.961 15.518-15.519v-153.493c4.265-2.895 7.073-7.782 7.073-13.314v-6.274h89.334c33.987 41.481 82.566 67.019 135.076 71.803 4.132.375 7.774-2.664 8.149-6.789.376-4.125-2.663-7.773-6.788-8.149-51.373-4.68-95.889-29.86-125.889-67.114-1.702-4.323-40.314-44.258-40.314-115.133 0-100.918 82.103-183.022 183.022-183.022 100.92 0 183.023 82.104 183.023 183.022 0 95.267-71.452 173.615-166.204 182.246-4.125.376-7.164 4.024-6.788 8.149.354 3.894 3.625 6.82 7.46 6.82.228 0 .458-.01.689-.031 101.2-9.218 179.843-94.295 179.843-197.185.001-109.188-88.832-198.021-198.023-198.021-61.419 0-116.397 28.107-152.746 72.133h-89.845v-6.274c0-5.531-2.808-10.418-7.073-13.313v-37.027c0-8.558-6.961-15.519-15.517-15.519h-22.105c-8.557 0-15.518 6.961-15.518 15.519v37.027c-4.265 2.894-7.074 7.781-7.074 13.313v58.611c0 5.532 2.808 10.419 7.073 13.314v119.971c-4.265 2.895-7.073 7.782-7.073 13.313v58.611c0 5.531 2.809 10.419 7.074 13.313zm38.14 153.493c0 .286-.232.519-.518.519h-22.104c-.286 0-.519-.232-.519-.519v-150.725h23.141zm100.241-188.081h-78.168v-16.062h68.435c2.802 5.161 6.385 11.084 9.733 16.062zm-78.168-221.271h78.519c-3.521 5.201-6.797 10.567-9.801 16.062h-68.718zm-7.073 93.389v-42.739c4.265-2.895 7.073-7.782 7.073-13.314v-6.274h61.391c-10.806 24.433-16.823 51.439-16.823 79.827 0 27.614 5.716 54.552 16.548 79.32h-61.116v-6.274c0-5.531-2.808-10.418-7.073-13.313v-42.232c0-4.142-3.357-7.5-7.5-7.5s-7.5 3.358-7.5 7.5v39.465h-23.14v-114.437h23.141v39.972c0 4.142 3.357 7.5 7.5 7.5s7.499-3.358 7.499-7.501zm-38.14-165.003c0-.286.232-.519.519-.519h22.104c.285 0 .518.232.518.519v34.26h-23.141zm-7.074 50.34c0-.596.485-1.081 1.081-1.081h35.125c.596 0 1.081.485 1.081 1.081v58.611c0 .596-.485 1.081-1.081 1.081h-35.125c-.596 0-1.081-.485-1.081-1.081zm0 205.209c0-.596.485-1.081 1.081-1.081h35.125c.596 0 1.081.485 1.081 1.081v58.611c0 .596-.485 1.081-1.081 1.081h-35.125c-.596 0-1.081-.485-1.081-1.081z"/></g></g></svg>
