<!DOCTYPE svg PUBLIC "-//W3C//DTD SVG 20010904//EN" "http://www.w3.org/TR/2001/REC-SVG-20010904/DTD/svg10.dtd">
<svg version="1.0" xmlns="http://www.w3.org/2000/svg" width="340px" height="384px" viewBox="0 0 3300 3440" preserveAspectRatio="xMidYMid meet">
<g id="layer101" fill="#3a3b3d" stroke="none">
<path d="M0 1720 l0 -1720 1650 0 1650 0 0 1720 0 1720 -1650 0 -1650 0 0 -1720z"/>
</g>
<g id="layer102" fill="#3a3b3d" stroke="none">
<path d="M1210 3300 c-17 -17 -20 -33 -20 -120 0 -93 1 -100 20 -100 18 0 20 8 22 98 3 91 4 97 25 100 22 3 22 0 25 -95 3 -90 5 -98 23 -98 19 0 20 6 19 97 0 80 -4 101 -19 118 -23 26 -69 26 -95 0z"/>
<path d="M1420 3300 c-30 -30 -29 -166 0 -198 39 -42 110 -14 110 43 0 33 -37 35 -42 3 -2 -15 -10 -23 -23 -23 -18 0 -20 8 -23 65 -1 36 2 71 7 79 12 19 41 6 41 -19 0 -13 7 -20 20 -20 15 0 20 7 20 25 0 32 -33 65 -65 65 -14 0 -34 -9 -45 -20z"/>
<path d="M1562 3304 c-20 -14 -22 -24 -22 -104 0 -80 2 -90 22 -104 31 -22 64 -20 88 4 17 17 20 33 20 100 0 67 -3 83 -20 100 -24 24 -57 26 -88 4z m63 -104 c0 -70 -1 -75 -22 -78 -22 -3 -23 -1 -23 78 0 79 1 81 23 78 21 -3 22 -8 22 -78z"/>
<path d="M1680 3201 l0 -120 100 0 c92 0 100 2 100 20 0 14 -7 19 -27 19 -24 0 -28 4 -28 30 0 24 4 30 23 30 13 0 22 6 22 15 0 8 -9 15 -19 15 -17 0 -20 8 -23 53 -3 45 -6 52 -25 55 -23 3 -23 1 -23 -97 l0 -101 -30 0 c-27 0 -30 3 -30 30 0 23 4 30 20 30 11 0 20 7 20 15 0 8 -9 15 -20 15 -18 0 -20 7 -20 55 0 48 -2 55 -20 55 -19 0 -20 -7 -20 -119z"/>
<path d="M1889 3293 c-1 -16 -2 -53 -4 -83 -2 -30 -1 -72 2 -92 5 -37 5 -38 49 -38 37 0 44 3 44 20 0 15 -7 20 -25 20 -21 0 -25 5 -25 30 0 23 4 30 20 30 11 0 20 7 20 15 0 8 -9 15 -20 15 -16 0 -20 7 -20 35 0 31 3 35 25 35 18 0 25 5 25 20 0 17 -7 20 -45 20 -42 0 -45 -2 -46 -27z"/>
<path d="M1990 3200 l0 -120 50 0 c43 0 50 3 50 20 0 16 -7 20 -30 20 -27 0 -30 3 -30 30 0 23 4 30 20 30 11 0 20 7 20 15 0 8 -9 15 -20 15 -16 0 -20 7 -20 34 0 30 3 34 30 38 17 3 30 0 30 -5 0 -6 2 -8 5 -6 2 3 2 15 -2 27 -5 19 -12 22 -54 22 l-49 0 0 -120z"/>
<path d="M1342 3113 c2 -30 7 -38 23 -38 16 0 21 8 23 38 3 34 1 37 -23 37 -24 0 -26 -3 -23 -37z"/>
<path d="M1310 3014 c-19 -2 -82 -9 -140 -15 -384 -41 -538 -179 -300 -269 91 -34 300 -64 286 -41 -3 4 -34 14 -68 20 -175 33 -299 92 -282 134 25 66 331 116 760 124 358 7 606 -14 777 -67 195 -60 145 -128 -135 -185 -140 -28 -158 -50 -21 -25 129 23 178 37 236 66 167 85 1 189 -383 240 -118 15 -638 28 -730 18z"/>
<path d="M1510 2914 c-14 -2 -56 -9 -95 -15 -69 -11 -137 -38 -150 -59 -4 -6 1 -20 11 -31 20 -22 33 -17 14 6 -11 13 -7 17 22 29 83 35 403 43 574 15 74 -13 94 -23 76 -41 -19 -19 -14 -30 8 -18 50 27 1 71 -102 95 -69 15 -306 28 -358 19z"/>
<path d="M1595 2854 c-232 -27 -417 -173 -531 -419 -46 -100 -82 -231 -92 -333 -9 -92 1 -168 21 -170 7 0 39 -8 72 -16 33 -9 94 -19 135 -23 67 -7 71 -8 35 -13 -22 -3 -46 -2 -52 3 -19 14 -43 0 -43 -24 0 -19 -2 -20 -17 -8 -14 12 -16 12 -8 -1 5 -8 9 -73 10 -145 0 -110 4 -140 24 -197 13 -38 29 -68 35 -68 7 0 18 -16 24 -35 15 -38 69 -105 87 -105 7 0 21 -11 31 -25 10 -14 25 -25 32 -25 9 0 11 -7 7 -21 -5 -14 -3 -20 5 -17 6 2 10 6 8 9 -2 3 9 17 24 31 15 14 26 27 24 29 -2 2 2 10 10 17 24 22 16 2 -25 -62 -102 -162 -126 -232 -126 -371 0 -103 2 -113 29 -163 38 -68 101 -126 204 -187 149 -89 242 -197 242 -285 0 -51 -32 -113 -75 -146 -50 -38 -135 -45 -183 -15 -92 58 -95 184 -6 226 40 19 58 19 93 0 71 -36 53 -145 -24 -145 -38 0 -55 16 -55 52 0 30 28 52 54 42 19 -7 21 -50 4 -57 -7 -2 -10 -8 -6 -12 12 -12 38 15 38 39 0 29 -18 46 -50 46 -49 0 -78 -61 -47 -101 35 -46 93 -44 133 4 48 57 15 142 -63 168 -28 9 -43 8 -79 -6 -118 -45 -126 -207 -15 -281 76 -50 165 -42 240 23 131 111 99 291 -71 409 l-41 29 63 7 c126 14 248 99 298 206 32 71 34 168 3 236 -11 27 -18 53 -14 60 3 6 3 8 -2 4 -4 -4 -30 12 -56 37 -27 25 -53 45 -59 45 -6 0 -8 5 -4 12 4 6 3 8 -3 5 -6 -4 -33 -3 -60 2 -46 9 -92 4 -137 -15 -14 -5 -17 -4 -12 4 5 8 2 10 -8 6 -9 -3 -14 -10 -11 -15 3 -4 -8 -18 -25 -30 -36 -27 -80 -111 -80 -154 0 -47 47 -132 88 -160 132 -90 304 72 202 189 -17 18 -43 37 -58 40 -15 4 -36 9 -47 12 -14 4 -16 2 -7 -4 9 -6 6 -11 -12 -20 -14 -6 -32 -25 -41 -41 -14 -27 -14 -35 -1 -65 8 -19 13 -36 11 -38 -2 -2 15 -4 37 -6 39 -3 68 10 68 30 0 6 -6 5 -14 -1 -24 -20 -69 -9 -83 19 -8 15 -9 26 -3 28 6 2 7 8 4 13 -8 13 16 40 29 32 6 -3 7 -1 3 5 -5 8 5 12 32 12 98 0 123 -138 32 -185 -34 -18 -93 -20 -122 -4 -17 9 -18 13 -7 20 11 8 10 9 -5 7 -48 -7 -86 115 -55 175 16 30 60 77 73 77 6 0 4 -5 -4 -11 -13 -9 -13 -10 0 -6 8 2 15 10 15 17 0 19 32 28 98 29 40 1 56 -2 51 -10 -4 -7 0 -9 12 -5 22 7 49 -8 49 -26 0 -7 6 -14 13 -14 6 -1 17 -2 24 -3 6 0 9 -4 6 -7 -3 -3 5 -16 17 -28 44 -44 57 -146 29 -228 -22 -67 -75 -122 -152 -160 -58 -29 -76 -33 -142 -32 -89 1 -164 31 -224 91 -76 76 -94 153 -71 295 4 26 11 46 15 43 5 -3 12 0 16 6 5 8 3 9 -6 4 -10 -6 -12 -4 -7 9 4 10 7 22 7 27 0 6 5 7 12 3 7 -5 8 -3 3 5 -9 15 24 93 36 86 4 -3 7 3 6 12 -1 16 100 193 110 193 6 0 -39 -82 -57 -104 -14 -17 -13 -20 8 -33 12 -9 22 -23 23 -32 0 -9 3 -11 5 -6 3 7 34 10 81 7 55 -2 79 1 84 10 6 9 9 9 9 1 0 -6 -10 -19 -22 -27 -12 -9 -17 -16 -11 -16 7 0 15 4 18 10 7 11 84 35 103 31 6 -1 12 4 12 11 0 10 2 10 8 1 17 -28 234 107 271 168 9 15 29 47 44 72 63 102 82 209 62 345 -6 42 -5 56 6 64 10 7 7 8 -11 4 -24 -5 -24 -4 -6 9 11 8 14 15 7 15 -7 0 -9 5 -5 12 4 6 3 8 -4 4 -5 -3 -12 -2 -14 4 -2 6 -14 7 -33 1 -17 -4 -39 -5 -50 -1 -13 5 -2 9 37 13 31 4 64 4 74 0 12 -4 15 -3 10 5 -4 7 -1 12 6 12 8 0 30 8 50 19 49 24 55 18 66 -57 2 -18 8 -35 13 -38 5 -3 9 -23 9 -45 0 -21 5 -39 11 -39 12 0 2 104 -13 133 -5 9 -6 22 -3 27 4 6 1 9 -7 8 -8 -2 -12 4 -10 15 2 10 -3 17 -13 17 -8 0 -15 9 -15 20 0 12 -12 26 -31 35 -35 19 -163 45 -217 45 -33 0 -35 1 -16 14 18 14 18 15 2 21 -10 4 -18 13 -18 21 0 8 -9 14 -20 14 -11 0 -20 7 -20 15 0 8 -9 15 -20 15 -11 0 -20 5 -20 10 0 6 -8 10 -17 10 -10 0 -27 7 -37 15 -10 8 -23 12 -28 9 -5 -3 -15 -1 -23 6 -8 6 -22 10 -32 9 -10 -1 -26 2 -36 6 -11 4 -69 5 -130 2 -141 -8 -214 -34 -302 -109 -11 -9 -32 -23 -47 -31 -26 -13 -21 -14 65 -12 50 1 74 1 52 -1 -114 -11 -242 -26 -257 -30 -15 -4 -18 1 -18 31 0 20 4 34 9 31 5 -4 7 3 4 13 -12 45 38 206 94 306 19 35 28 43 38 35 9 -8 15 -8 20 0 6 9 -1 14 -17 11 -13 -2 -9 8 14 39 11 16 26 26 31 23 6 -3 7 -2 4 4 -10 15 79 97 95 88 7 -5 10 -5 6 0 -4 4 -3 14 4 22 25 30 -2 21 -50 -16 -140 -111 -253 -332 -270 -530 -8 -95 -7 -107 12 -92 13 11 187 32 243 29 28 -1 22 -3 -27 -10 -36 -4 -75 -9 -86 -9 -14 -1 -21 -7 -20 -17 3 -21 -17 -42 -41 -43 -10 -1 20 -8 67 -15 l85 -13 -75 5 c-84 5 -180 21 -216 34 -19 7 -24 17 -24 42 0 47 27 204 45 266 14 47 18 52 32 40 14 -12 15 -11 4 7 -11 18 -9 30 18 89 38 85 118 199 133 190 6 -4 8 -2 5 4 -11 17 93 103 168 138 222 106 456 55 600 -130 53 -69 128 -212 119 -228 -4 -6 -3 -8 3 -5 13 8 36 -41 27 -55 -4 -6 -2 -8 3 -5 6 4 14 0 17 -9 9 -22 8 -26 -6 -18 -7 5 -8 3 -4 -5 5 -7 11 -10 14 -7 8 9 43 -54 36 -65 -3 -5 -2 -8 3 -7 4 2 27 -16 50 -39 l42 -42 -22 -16 c-21 -16 -21 -16 5 -1 26 15 73 11 48 -4 -6 -4 24 -6 67 -5 91 2 144 24 191 81 139 168 -65 415 -221 266 -62 -59 -52 -163 20 -197 67 -32 128 -2 140 68 4 29 1 40 -21 62 -16 16 -35 25 -49 23 -28 -4 -24 -22 5 -23 32 0 53 -46 37 -77 -16 -31 -28 -38 -66 -38 -46 0 -73 30 -73 81 0 51 13 75 50 94 39 20 79 19 117 -5 87 -53 83 -196 -6 -257 -71 -49 -165 -39 -226 24 -41 42 -129 208 -119 225 4 6 3 8 -3 5 -5 -3 -21 17 -34 46 -67 145 -179 272 -283 321 -76 36 -204 58 -281 50z m93 -771 c-32 -2 -86 -2 -120 0 -35 2 -9 3 57 3 66 0 94 -1 63 -3z m270 -10 c-21 -2 -57 -2 -80 0 -24 2 -7 4 37 4 44 0 63 -2 43 -4z m-400 -30 c-21 -2 -55 -2 -75 0 -21 2 -4 4 37 4 41 0 58 -2 38 -4z m120 0 c-16 -2 -40 -2 -55 0 -16 2 -3 4 27 4 30 0 43 -2 28 -4z m220 -10 c-16 -2 -40 -2 -55 0 -16 2 -3 4 27 4 30 0 43 -2 28 -4z m275 -29 c37 -9 67 -20 67 -24 0 -13 -64 -29 -135 -36 -56 -5 -59 -4 -41 10 11 9 16 16 12 16 -5 0 -3 6 3 14 14 17 -2 31 -24 22 -8 -3 -15 -1 -15 4 0 5 -19 11 -42 13 -24 2 -9 2 32 0 41 -2 105 -11 143 -19z m-926 -31 c-4 -3 -10 -3 -14 0 -3 4 0 7 7 7 7 0 10 -3 7 -7z m781 -40 c-10 -2 -28 -2 -40 0 -13 2 -5 4 17 4 22 1 32 -1 23 -4z m-580 -10 c-10 -2 -28 -2 -40 0 -13 2 -5 4 17 4 22 1 32 -1 23 -4z m430 0 c-10 -2 -28 -2 -40 0 -13 2 -5 4 17 4 22 1 32 -1 23 -4z m130 -40 c-10 -2 -28 -2 -40 0 -13 2 -5 4 17 4 22 1 32 -1 23 -4z m-661 -10 c-4 -3 -10 -3 -14 0 -3 4 0 7 7 7 7 0 10 -3 7 -7z m61 0 c-10 -2 -26 -2 -35 0 -10 3 -2 5 17 5 19 0 27 -2 18 -5z m469 0 c-4 -3 -10 -3 -14 0 -3 4 0 7 7 7 7 0 10 -3 7 -7z m-700 -10 c-4 -3 -10 -3 -14 0 -3 4 0 7 7 7 7 0 10 -3 7 -7z m353 -447 c0 -3 -5 -8 -12 -12 -7 -4 -8 -3 -4 4 7 12 16 16 16 8z m-20 -30 c0 -3 -5 -8 -12 -12 -7 -4 -8 -3 -4 4 7 12 16 16 16 8z m60 0 c0 -3 -5 -8 -12 -12 -7 -4 -8 -3 -4 4 7 12 16 16 16 8z m-80 -30 c0 -3 -5 -8 -12 -12 -7 -4 -8 -3 -4 4 7 12 16 16 16 8z m-95 -96 c3 -6 -1 -7 -9 -4 -18 7 -21 14 -7 14 6 0 13 -4 16 -10z"/>
<path d="M2099 2001 c10 -7 11 -9 1 -13 -8 -2 -14 -12 -16 -21 -3 -21 31 -23 39 -3 4 11 1 13 -11 10 -15 -5 -15 -4 1 9 16 13 16 15 1 21 -23 9 -31 7 -15 -3z"/>
<path d="M2193 1973 c4 -3 10 -3 14 0 3 4 0 7 -7 7 -7 0 -10 -3 -7 -7z"/>
<path d="M1424 2638 c-4 -7 -3 -8 4 -4 12 7 16 16 8 16 -3 0 -8 -5 -12 -12z"/>
<path d="M1385 2570 c-3 -6 1 -7 9 -4 18 7 21 14 7 14 -6 0 -13 -4 -16 -10z"/>
<path d="M2004 2528 c-4 -7 -3 -8 4 -4 7 4 12 9 12 12 0 8 -9 4 -16 -8z"/>
<path d="M1340 2520 c0 -7 3 -10 7 -7 3 4 3 10 0 14 -4 3 -7 0 -7 -7z"/>
<path d="M2044 2488 c-4 -7 -3 -8 4 -4 12 7 16 16 8 16 -3 0 -8 -5 -12 -12z"/>
<path d="M1230 2420 c0 -7 3 -10 7 -7 3 4 3 10 0 14 -4 3 -7 0 -7 -7z"/>
<path d="M2040 2426 c0 -2 7 -7 16 -10 8 -3 12 -2 9 4 -6 10 -25 14 -25 6z"/>
<path d="M1125 2410 c3 -5 8 -10 11 -10 3 0 2 5 -1 10 -3 6 -8 10 -11 10 -3 0 -2 -4 1 -10z"/>
<path d="M1508 2389 c-2 -4 -20 -9 -40 -11 -20 -1 -34 -6 -32 -10 3 -4 -8 -8 -24 -8 -17 0 -32 -6 -36 -15 -3 -8 -15 -15 -26 -15 -11 0 -33 -9 -48 -20 -15 -10 -39 -21 -53 -22 -33 -4 -58 -24 -55 -43 3 -18 16 -32 16 -17 0 7 9 12 20 12 11 0 20 7 20 15 0 8 6 15 14 15 8 0 16 3 18 8 5 11 131 72 150 72 9 0 19 4 22 9 8 13 97 22 221 22 100 0 117 -2 185 -30 41 -17 81 -31 88 -31 17 0 102 -60 102 -72 0 -4 7 -8 15 -8 8 0 15 -4 15 -9 0 -5 9 -11 20 -14 33 -9 23 9 -27 46 -75 54 -159 94 -263 125 -41 12 -298 13 -302 1z"/>
<path d="M2105 2390 c3 -5 8 -10 11 -10 3 0 2 5 -1 10 -3 6 -8 10 -11 10 -3 0 -2 -4 1 -10z"/>
<path d="M2285 2310 c3 -5 8 -10 11 -10 3 0 2 5 -1 10 -3 6 -8 10 -11 10 -3 0 -2 -4 1 -10z"/>
<path d="M2314 2298 c-4 -7 -3 -8 4 -4 12 7 16 16 8 16 -3 0 -8 -5 -12 -12z"/>
<path d="M1160 2260 c0 -7 3 -10 7 -7 3 4 3 10 0 14 -4 3 -7 0 -7 -7z"/>
<path d="M2355 2260 c3 -5 8 -10 11 -10 3 0 2 5 -1 10 -3 6 -8 10 -11 10 -3 0 -2 -4 1 -10z"/>
<path d="M2310 2240 c0 -7 3 -10 7 -7 3 4 3 10 0 14 -4 3 -7 0 -7 -7z"/>
<path d="M1155 2230 c3 -5 8 -10 11 -10 3 0 2 5 -1 10 -3 6 -8 10 -11 10 -3 0 -2 -4 1 -10z"/>
<path d="M2183 2233 c4 -3 10 -3 14 0 3 4 0 7 -7 7 -7 0 -10 -3 -7 -7z"/>
<path d="M2355 2211 c-3 -5 -2 -12 3 -15 5 -3 9 1 9 9 0 17 -3 19 -12 6z"/>
<path d="M2130 2199 c0 -20 27 -33 36 -17 4 6 3 8 -4 4 -6 -3 -15 2 -21 11 -9 16 -10 16 -11 2z"/>
<path d="M1183 2193 c4 -3 10 -3 14 0 3 4 0 7 -7 7 -7 0 -10 -3 -7 -7z"/>
<path d="M1141 2171 c-7 -5 -12 -14 -10 -20 2 -6 10 -2 17 9 14 22 13 23 -7 11z"/>
<path d="M2178 2163 c-23 -6 -23 -7 7 -39 29 -32 32 -44 8 -44 -15 0 -16 -2 -3 -10 10 -6 16 -6 18 0 2 6 10 10 17 10 8 0 17 5 21 12 4 6 3 8 -4 4 -13 -8 -56 50 -47 64 3 5 5 9 3 9 -2 -1 -11 -3 -20 -6z"/>
<path d="M1070 2140 c0 -7 3 -10 7 -7 3 4 3 10 0 14 -4 3 -7 0 -7 -7z"/>
<path d="M2255 2141 c-3 -5 -2 -12 3 -15 5 -3 9 1 9 9 0 17 -3 19 -12 6z"/>
<path d="M1060 2110 c0 -7 3 -10 7 -7 3 4 3 10 0 14 -4 3 -7 0 -7 -7z"/>
<path d="M1171 2094 c0 -11 3 -14 6 -6 3 7 2 16 -1 19 -3 4 -6 -2 -5 -13z"/>
<path d="M1040 2079 c0 -5 4 -8 9 -4 5 3 12 1 16 -5 3 -5 1 -10 -6 -10 -7 0 -10 -3 -6 -6 3 -3 11 -3 17 1 8 5 8 11 -1 21 -14 17 -29 18 -29 3z"/>
<path d="M1195 2080 c3 -5 8 -10 11 -10 3 0 2 5 -1 10 -3 6 -8 10 -11 10 -3 0 -2 -4 1 -10z"/>
<path d="M2093 2073 c4 -3 10 -3 14 0 3 4 0 7 -7 7 -7 0 -10 -3 -7 -7z"/>
<path d="M2270 2070 c-9 -6 -10 -10 -3 -10 6 0 15 5 18 10 8 12 4 12 -15 0z"/>
<path d="M1027 2047 c-11 -29 -9 -43 4 -30 6 6 9 19 7 29 -3 18 -4 18 -11 1z"/>
<path d="M2230 2056 c0 -2 7 -7 16 -10 8 -3 12 -2 9 4 -6 10 -25 14 -25 6z"/>
<path d="M1059 2025 c-1 -3 -2 -10 -3 -16 0 -7 -10 -15 -21 -20 -16 -6 -17 -8 -3 -8 17 -1 31 14 34 37 2 11 -5 18 -7 7z"/>
<path d="M2266 2015 c20 -14 36 -14 44 -1 3 5 -10 11 -28 12 -30 2 -32 1 -16 -11z"/>
<path d="M1185 2012 c-12 -8 -13 -27 -4 -37 4 -3 9 6 11 20 3 14 5 25 4 25 0 0 -6 -4 -11 -8z"/>
<path d="M1118 1998 c-9 -5 -6 -7 9 -5 12 2 25 6 28 8 8 9 -23 6 -37 -3z"/>
<path d="M1083 1983 c4 -3 10 -3 14 0 3 4 0 7 -7 7 -7 0 -10 -3 -7 -7z"/>
<path d="M1126 1971 c-4 -5 3 -7 14 -4 23 6 26 13 6 13 -8 0 -17 -4 -20 -9z"/>
<path d="M980 1905 c-10 -13 -11 -18 -1 -28 10 -9 11 -8 6 5 -11 29 22 34 58 9 l32 -22 -28 25 c-32 30 -49 32 -67 11z"/>
<path d="M2236 1905 c4 -8 8 -15 10 -15 2 0 4 7 4 15 0 8 -4 15 -10 15 -5 0 -7 -7 -4 -15z"/>
<path d="M1083 1893 c4 -3 10 -3 14 0 3 4 0 7 -7 7 -7 0 -10 -3 -7 -7z"/>
<path d="M2205 1890 c-3 -6 1 -7 9 -4 18 7 21 14 7 14 -6 0 -13 -4 -16 -10z"/>
<path d="M1103 1873 c4 -3 10 -3 14 0 3 4 0 7 -7 7 -7 0 -10 -3 -7 -7z"/>
<path d="M960 1832 c0 -21 -3 -41 -6 -45 -10 -10 -12 -147 -2 -153 4 -3 8 -18 8 -33 0 -49 41 -185 71 -236 39 -67 57 -90 66 -82 3 4 -1 15 -9 24 -15 18 -63 113 -93 188 -20 48 -35 333 -18 343 7 5 6 11 -3 20 -12 11 -14 7 -14 -26z"/>
<path d="M1003 1853 c4 -3 10 -3 14 0 3 4 0 7 -7 7 -7 0 -10 -3 -7 -7z"/>
<path d="M2326 1598 c-4 -49 -12 -90 -17 -94 -5 -3 -9 -14 -9 -24 0 -10 -7 -25 -15 -34 -8 -8 -15 -21 -15 -29 0 -17 -29 -74 -47 -95 -10 -10 -10 -16 0 -27 8 -9 13 -10 15 -2 2 7 10 26 18 44 8 17 14 35 14 41 0 5 7 15 15 22 8 7 15 21 15 31 0 11 4 27 9 37 25 44 39 119 32 167 -7 49 -7 49 -15 -37z"/>
<path d="M2138 1222 c-84 -83 -107 -102 -123 -102 -8 0 -15 -4 -15 -10 0 -5 9 -10 20 -10 11 0 20 4 20 9 0 6 24 26 54 46 30 20 62 48 71 63 10 15 27 35 39 44 15 13 17 18 6 18 -8 0 -41 -26 -72 -58z"/>
<path d="M1110 1255 c0 -8 5 -15 11 -15 5 0 8 -4 4 -9 -3 -5 4 -12 15 -16 11 -3 20 -12 20 -20 0 -8 10 -17 23 -21 12 -4 32 -17 45 -29 26 -27 71 -43 51 -19 -6 8 -17 14 -25 14 -7 0 -18 9 -24 20 -6 11 -20 20 -31 20 -11 0 -18 4 -14 9 3 5 -6 18 -20 29 -14 11 -25 24 -25 30 0 5 -7 12 -15 16 -9 3 -15 0 -15 -9z"/>
<path d="M1280 1180 c0 -7 3 -10 7 -7 3 4 3 10 0 14 -4 3 -7 0 -7 -7z"/>
<path d="M1305 1180 c-3 -5 -1 -10 4 -10 6 0 11 -9 11 -20 0 -11 4 -20 9 -20 6 0 6 12 0 30 -12 33 -15 35 -24 20z"/>
<path d="M1473 1183 c4 -3 10 -3 14 0 3 4 0 7 -7 7 -7 0 -10 -3 -7 -7z"/>
<path d="M1440 1170 c0 -7 3 -10 7 -7 3 4 3 10 0 14 -4 3 -7 0 -7 -7z"/>
<path d="M1343 1163 c4 -3 10 -3 14 0 3 4 0 7 -7 7 -7 0 -10 -3 -7 -7z"/>
<path d="M1470 1160 c-8 -5 -12 -12 -9 -15 4 -3 12 1 19 10 14 17 11 19 -10 5z"/>
<path d="M1753 1163 c4 -3 10 -3 14 0 3 4 0 7 -7 7 -7 0 -10 -3 -7 -7z"/>
<path d="M1718 1153 c7 -3 16 -2 19 1 4 3 -2 6 -13 5 -11 0 -14 -3 -6 -6z"/>
<path d="M1463 1123 c4 -3 10 -3 14 0 3 4 0 7 -7 7 -7 0 -10 -3 -7 -7z"/>
<path d="M1415 1112 c2 -3 0 -13 -6 -23 -14 -27 -4 -24 14 4 13 20 13 24 1 24 -8 0 -12 -2 -9 -5z"/>
<path d="M1874 1109 c-3 -6 -1 -16 6 -22 10 -9 12 -8 7 5 -3 9 -1 19 6 22 9 3 9 5 0 5 -6 1 -15 -4 -19 -10z"/>
<path d="M1300 1100 c-8 -26 -7 -41 2 -32 6 6 8 16 5 24 -3 7 -6 11 -7 8z"/>
<path d="M1965 1089 c-4 -6 -16 -14 -28 -18 -16 -6 -17 -9 -5 -14 10 -3 25 4 39 19 12 13 17 24 11 24 -6 0 -14 -5 -17 -11z"/>
<path d="M1734 1058 c-4 -7 -3 -8 4 -4 12 7 16 16 8 16 -3 0 -8 -5 -12 -12z"/>
<path d="M1285 1040 c3 -5 8 -10 11 -10 2 0 4 5 4 10 0 6 -5 10 -11 10 -5 0 -7 -4 -4 -10z"/>
<path d="M1755 1040 c-3 -5 -2 -10 4 -10 5 0 13 5 16 10 3 6 2 10 -4 10 -5 0 -13 -4 -16 -10z"/>
<path d="M1459 1029 c-8 -5 -8 -9 0 -13 6 -4 21 0 32 8 l22 15 -22 -2 c-12 -1 -27 -4 -32 -8z"/>
<path d="M1658 1023 c6 -2 18 -2 25 0 6 3 1 5 -13 5 -14 0 -19 -2 -12 -5z"/>
<path d="M1783 1023 c4 -3 10 -3 14 0 3 4 0 7 -7 7 -7 0 -10 -3 -7 -7z"/>
<path d="M1720 1010 c0 -7 3 -10 7 -7 3 4 3 10 0 14 -4 3 -7 0 -7 -7z"/>
<path d="M1434 998 c-4 -7 -3 -8 4 -4 12 7 16 16 8 16 -3 0 -8 -5 -12 -12z"/>
<path d="M1630 1000 c-9 -6 -10 -10 -3 -10 6 0 15 5 18 10 8 12 4 12 -15 0z"/>
<path d="M1773 1003 c4 -3 10 -3 14 0 3 4 0 7 -7 7 -7 0 -10 -3 -7 -7z"/>
<path d="M1870 980 c0 -7 3 -10 7 -7 3 4 3 10 0 14 -4 3 -7 0 -7 -7z"/>
<path d="M1588 961 c4 -10 7 -11 10 -3 2 7 8 10 12 7 5 -3 11 -2 14 3 2 4 -6 8 -19 8 -16 0 -21 -4 -17 -15z"/>
<path d="M1715 930 c3 -5 8 -10 11 -10 3 0 2 5 -1 10 -3 6 -8 10 -11 10 -3 0 -2 -4 1 -10z"/>
<path d="M1665 900 c3 -5 8 -10 11 -10 3 0 2 5 -1 10 -3 6 -8 10 -11 10 -3 0 -2 -4 1 -10z"/>
<path d="M1599 833 c-13 -16 -12 -17 4 -4 9 7 17 15 17 17 0 8 -8 3 -21 -13z"/>
<path d="M1690 780 c0 -5 5 -10 11 -10 5 0 7 5 4 10 -3 6 -8 10 -11 10 -2 0 -4 -4 -4 -10z"/>
</g>
<g id="layer103" fill="#6f5547" stroke="none">
<path d="M1429 3301 c-22 -17 -24 -27 -24 -100 0 -85 8 -102 52 -116 17 -4 29 1 48 19 30 30 33 56 5 56 -14 0 -20 -7 -20 -21 0 -15 -5 -20 -22 -17 -21 3 -23 9 -26 71 -3 71 8 100 34 90 8 -3 14 -16 14 -29 0 -17 6 -24 20 -24 36 0 15 74 -24 84 -30 8 -31 8 -57 -13z"/>
<path d="M1580 3313 c-31 -11 -40 -37 -40 -113 0 -90 12 -113 60 -113 51 0 70 30 70 115 0 60 -3 72 -25 93 -24 25 -36 28 -65 18z m38 -32 c9 -5 12 -29 10 -82 -3 -68 -5 -74 -25 -77 -22 -3 -23 -1 -23 76 0 91 6 104 38 83z"/>
<path d="M1680 3200 l0 -110 51 0 c36 0 49 4 47 13 -3 6 -17 13 -31 15 -22 3 -27 8 -27 33 0 22 5 29 20 29 11 0 20 7 20 15 0 8 -9 15 -20 15 -17 0 -20 7 -20 50 0 43 -3 50 -20 50 -19 0 -20 -7 -20 -110z"/>
<path d="M1790 3200 l0 -110 46 0 c50 0 59 22 11 28 -22 3 -27 8 -27 33 0 22 5 29 20 29 11 0 20 7 20 15 0 8 -9 15 -20 15 -17 0 -20 7 -20 50 0 38 -4 50 -15 50 -12 0 -15 -19 -15 -110z"/>
<path d="M1890 3200 l0 -110 45 0 c33 0 45 4 45 15 0 10 -10 15 -27 15 -24 0 -28 4 -28 30 0 22 5 30 17 30 27 0 31 19 6 29 -18 7 -23 16 -22 42 1 29 5 34 27 37 44 5 30 22 -18 22 l-45 0 0 -110z"/>
<path d="M1990 3199 l0 -110 48 3 c49 3 61 21 17 26 -20 3 -25 9 -25 33 0 22 5 29 20 29 11 0 20 7 20 15 0 8 -9 15 -20 15 -17 0 -20 7 -20 40 0 36 3 40 25 40 14 0 25 5 25 10 0 6 -20 10 -45 10 l-45 0 0 -111z"/>
<path d="M1300 3009 c-321 -22 -540 -95 -540 -178 0 -67 122 -119 340 -146 74 -9 53 9 -29 24 -78 15 -189 52 -233 78 -71 42 -31 89 105 124 399 102 1292 76 1485 -43 82 -51 2 -112 -203 -153 -112 -23 -175 -44 -90 -30 203 33 292 61 329 106 24 28 25 32 11 59 -61 118 -642 196 -1175 159z"/>
<path d="M1403 2895 c-83 -18 -133 -43 -133 -66 0 -10 5 -21 11 -25 7 -4 9 0 5 14 -6 16 -1 22 26 31 123 40 504 40 626 0 26 -9 33 -15 29 -31 -4 -15 -3 -17 8 -8 35 29 -14 61 -127 84 -96 20 -355 20 -445 1z"/>
<path d="M1500 2835 c-213 -59 -385 -243 -477 -510 -51 -150 -69 -347 -35 -378 51 -46 330 -71 711 -64 369 7 522 28 566 77 53 58 -83 93 -435 110 -207 10 -493 1 -638 -20 -37 -5 -70 -10 -74 -10 -14 0 -8 84 12 169 39 161 140 334 241 409 52 38 61 59 10 23 -60 -43 -150 -154 -195 -240 -52 -102 -84 -207 -93 -310 l-6 -74 53 7 c206 27 520 34 765 16 394 -30 443 -76 115 -111 -148 -16 -611 -16 -760 0 -63 6 -145 19 -182 27 l-68 16 0 61 c0 143 79 380 171 513 80 116 197 203 323 239 81 24 238 17 316 -14 132 -51 203 -133 326 -375 125 -245 175 -292 305 -284 83 4 140 39 177 108 48 90 15 212 -68 255 -67 35 -162 8 -195 -54 -43 -83 2 -171 87 -171 56 0 88 30 88 82 0 44 -22 68 -58 67 -26 -1 -26 -1 5 -10 81 -24 34 -142 -48 -122 -54 13 -78 61 -59 119 16 47 54 74 104 74 122 0 174 -149 89 -251 -70 -83 -200 -79 -274 10 -16 20 -67 109 -112 199 -45 89 -103 192 -129 227 -55 75 -144 144 -226 176 -75 29 -251 36 -332 14z"/>
<path d="M1648 1746 c8 -101 -37 -209 -184 -433 -140 -214 -192 -354 -182 -486 10 -124 75 -212 218 -297 112 -67 211 -155 239 -213 39 -81 23 -167 -42 -224 -77 -67 -166 -64 -231 7 -31 34 -36 47 -36 88 0 54 17 85 60 107 40 21 83 19 113 -5 50 -39 42 -117 -14 -140 -24 -10 -33 -10 -54 4 -27 18 -34 63 -13 84 30 30 82 -3 60 -39 -7 -10 -8 -19 -3 -19 13 0 23 34 15 54 -8 22 -47 30 -73 17 -54 -29 -26 -113 41 -119 70 -6 113 62 84 131 -21 52 -55 71 -117 65 -119 -12 -169 -151 -87 -244 42 -48 83 -67 144 -67 113 0 214 104 214 220 0 73 -55 162 -139 225 -78 58 -80 60 -50 53 35 -9 126 9 183 35 194 92 258 328 130 478 -105 123 -284 122 -379 -3 -30 -38 -42 -101 -31 -160 9 -46 67 -110 113 -126 117 -38 231 78 178 181 -33 63 -110 81 -159 35 -66 -61 10 -176 80 -119 19 15 19 16 -1 8 -38 -13 -58 -9 -78 19 -20 26 -20 30 -6 55 8 15 27 33 43 40 54 27 116 -25 116 -97 0 -62 -82 -118 -152 -104 -41 8 -95 64 -108 113 -31 117 91 239 217 215 118 -22 192 -114 193 -240 0 -195 -221 -338 -411 -266 -161 61 -231 189 -200 360 17 92 54 175 148 332 98 163 146 257 167 328 16 55 21 137 10 179 -11 41 -21 23 -16 -32z"/>
</g>
<g id="layer104" fill="#865e43" stroke="none">
<path d="M1419 3294 c-9 -11 -14 -44 -14 -94 0 -89 12 -110 60 -110 35 0 48 11 59 48 6 18 3 22 -13 22 -14 0 -21 -6 -21 -19 0 -24 -13 -33 -34 -25 -14 5 -16 20 -14 88 3 73 5 81 23 81 12 0 21 -9 25 -25 8 -33 36 -34 32 -1 -1 14 -7 30 -13 38 -16 18 -74 16 -90 -3z"/>
<path d="M1556 3288 c-11 -15 -16 -45 -16 -88 0 -81 17 -110 64 -110 19 0 40 7 47 17 19 22 19 164 0 187 -20 24 -77 21 -95 -6z m72 -84 c2 -70 0 -83 -15 -88 -27 -11 -43 21 -43 82 0 61 14 95 38 90 14 -3 18 -18 20 -84z"/>
<path d="M1690 3200 l0 -110 40 0 c22 0 40 5 40 10 0 6 -11 10 -25 10 -22 0 -25 4 -25 34 0 25 5 35 20 39 11 3 20 10 20 16 0 6 -9 11 -20 11 -17 0 -20 7 -20 50 0 38 -4 50 -15 50 -12 0 -15 -19 -15 -110z"/>
<path d="M1790 3200 l0 -110 45 0 c25 0 45 5 45 10 0 6 -13 10 -30 10 -28 0 -30 3 -30 35 0 28 4 35 20 35 11 0 20 7 20 15 0 8 -9 15 -20 15 -17 0 -20 7 -20 50 0 38 -4 50 -15 50 -12 0 -15 -19 -15 -110z"/>
<path d="M1890 3200 l0 -110 45 0 c49 0 62 17 18 22 -23 2 -29 8 -31 36 -3 27 0 32 17 32 12 0 21 7 21 15 0 8 -9 15 -20 15 -17 0 -20 7 -20 40 0 38 2 40 30 40 17 0 30 5 30 10 0 6 -20 10 -45 10 l-45 0 0 -110z"/>
<path d="M1990 3200 l0 -110 45 0 c25 0 45 5 45 10 0 6 -11 10 -25 10 -22 0 -25 4 -25 34 0 25 5 35 20 39 11 3 20 10 20 16 0 6 -9 11 -20 11 -17 0 -20 7 -20 40 0 36 3 40 25 40 14 0 25 5 25 10 0 6 -20 10 -45 10 l-45 0 0 -110z"/>
<path d="M1360 3010 c-381 -19 -620 -97 -596 -194 15 -59 130 -102 351 -130 54 -7 24 10 -35 19 -69 11 -218 62 -252 86 -35 25 -34 54 2 80 39 29 201 66 376 85 222 24 699 25 874 1 228 -32 355 -71 381 -118 24 -45 -52 -85 -241 -128 -47 -11 -76 -20 -65 -20 11 0 59 8 108 19 194 43 261 101 187 163 -85 72 -328 121 -684 137 -110 5 -214 9 -231 8 -16 -1 -95 -4 -175 -8z"/>
<path d="M1465 2904 c-11 -3 -46 -9 -77 -15 -68 -14 -118 -42 -117 -66 0 -15 2 -14 9 3 13 33 78 45 286 51 198 6 333 -5 385 -31 16 -8 29 -11 29 -6 0 15 -72 42 -149 56 -69 12 -317 17 -366 8z"/>
<path d="M1506 2835 c-168 -43 -329 -183 -423 -370 -60 -117 -113 -328 -113 -447 0 -79 22 -90 225 -120 121 -17 683 -17 827 0 127 15 216 37 240 59 40 36 -24 71 -172 93 -185 27 -716 23 -934 -6 l-49 -7 6 75 c11 151 90 330 202 458 l57 65 -64 -66 c-111 -116 -187 -280 -210 -455 -7 -46 -9 -86 -6 -89 3 -3 40 0 84 7 128 21 759 17 901 -5 119 -19 173 -34 173 -48 0 -5 -24 -15 -52 -23 -215 -61 -915 -59 -1148 4 l-43 12 6 96 c7 119 42 245 102 367 103 210 268 342 454 364 169 21 314 -29 419 -144 46 -51 81 -106 151 -244 50 -98 107 -196 126 -218 110 -128 306 -102 369 49 47 112 -20 235 -133 245 -107 10 -183 -95 -136 -187 43 -84 175 -59 175 33 0 39 -29 71 -57 64 -15 -4 -14 -5 4 -6 48 -2 58 -78 16 -111 -35 -27 -79 -21 -112 17 -19 21 -22 34 -18 66 17 125 183 138 231 17 21 -54 20 -85 -5 -137 -28 -58 -87 -93 -158 -93 -102 0 -144 44 -250 256 -108 219 -173 307 -274 371 -101 64 -285 90 -411 58z"/>
<path d="M1384 2638 c-4 -7 -3 -8 4 -4 12 7 16 16 8 16 -3 0 -8 -5 -12 -12z"/>
</g>
<g id="layer105" fill="#6a6160" stroke="none">
<path d="M1216 3296 c-24 -23 -26 -32 -26 -116 0 -83 1 -90 20 -90 19 0 20 7 20 94 0 80 3 95 17 100 30 12 43 -21 43 -111 0 -67 3 -83 15 -83 12 0 15 17 15 93 0 101 -8 122 -52 132 -21 5 -33 1 -52 -19z"/>
<path d="M1651 1800 c-1 -3 -3 -41 -5 -85 -4 -101 -35 -172 -171 -386 -158 -248 -202 -360 -193 -494 9 -131 71 -217 218 -305 112 -67 211 -155 239 -213 39 -81 23 -167 -42 -224 -77 -67 -166 -64 -231 7 -31 34 -36 47 -36 88 0 54 17 85 60 107 60 31 130 6 144 -51 16 -64 -48 -123 -98 -91 -30 20 -38 50 -19 76 28 41 91 11 65 -30 -7 -10 -8 -19 -3 -19 13 0 23 34 15 54 -8 22 -47 30 -73 17 -52 -28 -26 -113 37 -119 41 -4 68 11 88 50 13 26 14 38 5 69 -17 56 -59 83 -122 77 -119 -12 -168 -151 -87 -244 42 -48 83 -67 144 -67 113 0 214 104 214 220 0 73 -55 162 -139 225 -75 56 -80 62 -54 54 11 -4 48 -2 80 3 232 37 365 254 274 446 -49 105 -138 160 -246 153 -176 -11 -270 -205 -159 -328 59 -65 139 -77 204 -30 74 53 78 155 8 204 -85 60 -199 -53 -125 -122 28 -26 56 -28 83 -6 19 15 19 16 -1 9 -46 -16 -54 -16 -74 6 -26 28 -27 59 -1 86 58 63 150 16 150 -76 0 -62 -84 -121 -150 -106 -44 10 -96 63 -109 113 -32 118 84 238 212 218 119 -19 196 -114 197 -241 0 -109 -69 -208 -179 -259 -71 -32 -199 -30 -267 6 -108 57 -160 130 -170 240 -11 120 30 236 155 442 137 225 182 333 180 435 0 44 -15 113 -18 91z"/>
</g>
<g id="layer106" fill="#906241" stroke="none">
<path d="M1420 3291 c-5 -11 -10 -52 -10 -91 0 -89 10 -110 53 -110 39 0 57 15 57 47 0 31 -18 29 -30 -3 -7 -16 -16 -24 -28 -22 -15 3 -17 15 -17 88 0 78 2 85 20 85 12 0 21 -9 25 -25 3 -14 12 -25 20 -25 17 0 15 41 -2 63 -17 20 -76 15 -88 -7z"/>
<path d="M1556 3288 c-11 -15 -16 -45 -16 -88 0 -81 17 -110 64 -110 49 0 56 14 56 110 0 54 -5 91 -12 98 -21 21 -75 15 -92 -10z m72 -86 c2 -67 0 -83 -13 -88 -31 -12 -45 15 -45 85 0 69 11 94 40 89 12 -3 16 -21 18 -86z"/>
<path d="M1690 3200 l0 -110 40 0 c22 0 40 5 40 10 0 6 -11 10 -25 10 -22 0 -25 4 -25 40 0 33 3 40 20 40 11 0 20 5 20 10 0 6 -9 10 -20 10 -17 0 -20 7 -20 50 0 38 -4 50 -15 50 -12 0 -15 -19 -15 -110z"/>
<path d="M1790 3200 l0 -110 39 0 c22 0 43 5 46 10 4 6 -7 10 -25 10 -30 0 -31 2 -28 38 2 24 8 37 17 37 8 0 16 6 19 13 2 7 -5 12 -17 12 -18 0 -21 6 -21 50 0 38 -4 50 -15 50 -12 0 -15 -19 -15 -110z"/>
<path d="M1998 3233 c-2 -43 -2 -93 0 -110 3 -31 6 -33 43 -33 21 0 39 5 39 10 0 6 -11 10 -25 10 -22 0 -25 4 -25 40 0 33 3 40 20 40 11 0 20 5 20 10 0 6 -9 10 -20 10 -17 0 -20 7 -20 40 0 36 3 40 25 40 14 0 25 5 25 10 0 6 -18 10 -39 10 l-39 0 -4 -77z"/>
<path d="M1170 2995 c-356 -45 -506 -150 -342 -238 29 -16 94 -37 145 -48 110 -22 184 -25 92 -3 -99 24 -212 64 -239 85 -92 72 56 131 424 171 180 19 687 16 840 -5 218 -31 345 -71 370 -118 21 -38 -23 -69 -155 -110 -45 -14 -50 -18 -21 -13 22 3 63 14 92 25 174 65 126 151 -118 209 -183 43 -280 52 -633 56 -254 2 -369 -1 -455 -11z"/>
<path d="M1423 2895 c-80 -14 -145 -42 -151 -65 -3 -12 -1 -11 9 2 25 30 91 40 294 45 206 6 321 -4 380 -32 l30 -15 -23 20 c-64 54 -356 78 -539 45z"/>
<path d="M1525 2838 c-27 -5 -87 -27 -131 -48 -225 -109 -396 -406 -420 -727 -7 -106 -1 -118 76 -138 257 -66 1048 -54 1188 19 44 23 42 53 -3 72 -136 57 -684 71 -1075 28 l-56 -6 7 68 c13 133 58 262 133 374 32 48 32 51 6 20 -71 -82 -139 -263 -155 -414 l-8 -69 34 7 c200 36 727 37 984 0 61 -8 145 -34 145 -43 0 -79 -980 -95 -1206 -21 l-34 12 0 68 c0 191 96 435 229 584 206 229 554 243 749 31 45 -49 81 -107 153 -246 128 -250 179 -299 304 -299 117 1 217 113 201 228 -13 94 -87 159 -172 149 -155 -17 -168 -237 -13 -237 42 0 79 39 79 83 0 32 -24 67 -46 67 -4 0 2 -7 14 -16 32 -22 30 -76 -4 -103 -37 -29 -70 -26 -105 8 -41 42 -40 89 4 138 30 32 40 36 79 36 116 0 175 -130 108 -237 -28 -46 -90 -78 -150 -78 -97 0 -150 55 -246 251 -112 231 -189 329 -305 391 -100 53 -240 72 -364 48z"/>
<path d="M2158 2693 c7 -3 16 -2 19 1 4 3 -2 6 -13 5 -11 0 -14 -3 -6 -6z"/>
<path d="M1315 2578 l-40 -43 43 40 c39 36 47 45 39 45 -2 0 -21 -19 -42 -42z"/>
</g>
<g id="layer107" fill="#756c6b" stroke="none">
<path d="M1232 3309 c-31 -12 -42 -48 -42 -140 0 -72 2 -79 20 -79 19 0 20 7 20 95 0 76 3 97 15 101 33 13 45 -15 45 -107 0 -72 3 -89 15 -89 12 0 15 17 15 93 0 60 -5 99 -12 109 -17 20 -48 27 -76 17z"/>
<path d="M1651 1728 c-1 -110 -29 -173 -175 -398 -110 -169 -161 -272 -181 -365 -43 -194 22 -328 212 -438 95 -54 206 -153 234 -208 23 -46 25 -128 5 -168 -22 -41 -80 -88 -126 -102 -106 -32 -218 71 -189 175 23 83 123 114 180 57 37 -38 39 -82 4 -117 -32 -32 -71 -29 -98 8 -19 25 -19 28 -3 52 16 26 43 33 62 18 5 -4 4 0 -3 7 -18 22 -65 3 -77 -31 -27 -76 95 -121 141 -52 46 71 -8 164 -97 164 -100 0 -165 -106 -122 -202 64 -146 264 -145 350 1 35 59 37 146 5 206 -20 39 -99 120 -158 162 l-29 21 61 1 c114 1 228 62 290 155 42 62 56 116 50 192 -14 182 -194 303 -347 233 -84 -38 -130 -103 -130 -184 0 -88 68 -172 147 -182 55 -6 122 31 147 80 53 110 -71 222 -155 138 -17 -18 -29 -40 -29 -56 0 -30 41 -75 67 -75 11 1 6 6 -14 15 -55 24 -57 92 -2 120 62 33 129 -12 129 -86 0 -44 -33 -90 -80 -109 -99 -41 -214 80 -181 190 42 140 212 184 328 85 147 -126 102 -355 -86 -444 -47 -22 -70 -26 -141 -26 -73 0 -93 4 -142 28 -140 69 -197 211 -153 382 21 82 58 158 156 321 126 213 170 321 168 419 -1 74 -18 86 -18 13z"/>
</g>
<g id="layer108" fill="#a06940" stroke="none">
<path d="M1420 3291 c-5 -11 -10 -53 -10 -95 0 -83 12 -106 59 -106 33 0 51 16 51 47 0 31 -18 29 -30 -3 -7 -16 -16 -24 -28 -22 -15 3 -17 15 -17 88 0 74 2 85 18 88 13 3 22 -6 30 -27 6 -17 15 -31 19 -31 13 0 9 55 -4 68 -20 20 -76 15 -88 -7z"/>
<path d="M1559 3294 c-7 -9 -15 -47 -17 -85 -5 -86 12 -119 61 -119 50 0 57 14 57 110 0 54 -5 91 -12 98 -17 17 -73 15 -89 -4z m69 -92 c2 -67 0 -83 -13 -88 -31 -12 -45 15 -45 85 0 69 11 94 40 89 12 -3 16 -21 18 -86z"/>
<path d="M1890 3200 l0 -110 45 0 c25 0 45 5 45 10 0 6 -13 10 -30 10 -28 0 -30 3 -30 36 0 27 5 37 20 41 11 3 20 9 20 14 0 5 -9 9 -20 9 -17 0 -20 7 -20 40 0 38 2 40 30 40 17 0 30 5 30 10 0 6 -20 10 -45 10 l-45 0 0 -110z"/>
<path d="M1265 3004 c-16 -2 -70 -9 -120 -15 -118 -14 -269 -54 -322 -85 -79 -46 -82 -96 -7 -140 53 -31 158 -61 246 -69 63 -6 63 -6 -32 20 -129 34 -197 63 -220 93 -19 24 -20 26 -3 45 41 46 191 83 433 109 166 17 672 17 815 0 216 -26 380 -76 409 -124 15 -24 -24 -63 -88 -87 -28 -11 -44 -20 -36 -20 20 -1 100 36 122 56 60 54 -24 120 -211 164 -171 41 -284 51 -626 54 -181 2 -343 1 -360 -1z"/>
<path d="M1445 2899 c-100 -15 -175 -45 -175 -71 0 -7 5 -5 13 4 23 30 90 40 297 45 217 5 335 -5 379 -34 13 -8 20 -10 17 -4 -35 55 -332 89 -531 60z"/>
<path d="M1522 2835 c-240 -52 -439 -278 -517 -587 -31 -123 -42 -266 -23 -290 59 -77 793 -104 1146 -42 105 18 144 37 140 67 -7 50 -168 75 -528 84 -232 6 -474 -5 -587 -26 -24 -5 -45 -5 -48 -2 -4 7 9 124 20 178 5 24 4 25 -4 6 -15 -33 -34 -185 -24 -193 4 -4 35 -4 68 1 276 40 849 25 1033 -27 90 -25 63 -45 -103 -72 -78 -12 -175 -16 -440 -16 -327 -1 -441 6 -575 35 -81 17 -82 20 -70 129 34 303 191 570 395 671 157 77 354 72 486 -12 103 -65 163 -148 278 -381 89 -183 160 -248 267 -248 126 0 229 115 210 234 -14 83 -82 145 -161 146 -59 0 -135 -71 -135 -126 0 -41 22 -85 51 -99 68 -35 141 0 137 67 l-1 33 -4 -32 c-5 -35 -43 -73 -74 -73 -105 0 -121 149 -21 196 85 40 182 -34 182 -138 -1 -46 -32 -111 -66 -135 -46 -33 -107 -46 -155 -33 -71 19 -122 78 -191 219 -90 186 -135 259 -200 327 -124 129 -299 179 -486 139z"/>
<path d="M2258 2713 c7 -3 16 -2 19 1 4 3 -2 6 -13 5 -11 0 -14 -3 -6 -6z"/>
<path d="M2208 2703 c6 -2 18 -2 25 0 6 3 1 5 -13 5 -14 0 -19 -2 -12 -5z"/>
<path d="M1304 2568 l-29 -33 33 29 c30 28 37 36 29 36 -2 0 -16 -15 -33 -32z"/>
<path d="M1259 2513 c-13 -16 -12 -17 4 -4 9 7 17 15 17 17 0 8 -8 3 -21 -13z"/>
<path d="M1234 2478 c-4 -7 -3 -8 4 -4 12 7 16 16 8 16 -3 0 -8 -5 -12 -12z"/>
<path d="M1180 2389 c-7 -11 -10 -23 -7 -25 2 -2 9 7 15 21 14 30 7 33 -8 4z"/>
<path d="M1146 2310 c-9 -22 -16 -46 -16 -53 1 -6 10 10 20 37 11 28 18 51 16 53 -2 2 -11 -14 -20 -37z"/>
</g>
<g id="layer109" fill="#b1723b" stroke="none">
<path d="M1426 3294 c-12 -11 -16 -36 -16 -94 0 -88 12 -110 59 -110 33 0 51 16 51 47 0 30 -14 29 -28 -2 -25 -54 -62 -15 -62 65 0 83 40 121 63 60 6 -16 15 -30 19 -30 13 0 9 55 -4 68 -17 17 -64 15 -82 -4z"/>
<path d="M1559 3294 c-19 -23 -23 -142 -7 -174 16 -31 68 -39 92 -15 19 19 23 153 6 186 -13 24 -72 26 -91 3z m72 -25 c14 -27 7 -135 -9 -151 -9 -9 -17 -10 -30 -2 -21 14 -30 137 -11 160 17 20 37 17 50 -7z"/>
<path d="M1690 3200 l0 -110 40 0 c22 0 40 5 40 10 0 6 -11 10 -25 10 -22 0 -25 4 -25 39 0 33 4 40 23 44 l22 4 -22 8 c-20 6 -23 14 -23 56 0 37 -4 49 -15 49 -12 0 -15 -19 -15 -110z"/>
<path d="M1790 3200 l0 -110 40 0 c22 0 40 5 40 10 0 6 -11 10 -25 10 -22 0 -25 4 -25 40 0 33 3 40 20 40 11 0 20 5 20 10 0 6 -9 10 -20 10 -17 0 -20 7 -20 50 0 38 -4 50 -15 50 -12 0 -15 -19 -15 -110z"/>
<path d="M1890 3200 l0 -110 45 0 c25 0 45 5 45 10 0 6 -13 10 -30 10 -28 0 -30 2 -30 40 0 33 3 40 20 40 11 0 20 5 20 10 0 6 -9 10 -20 10 -17 0 -20 7 -20 40 0 38 2 40 30 40 17 0 30 5 30 10 0 6 -20 10 -45 10 l-45 0 0 -110z"/>
<path d="M2000 3200 l0 -110 40 0 c22 0 40 5 40 10 0 6 -11 10 -25 10 -22 0 -25 4 -25 39 0 33 4 40 23 44 l22 4 -22 8 c-19 6 -23 15 -23 46 0 35 3 39 25 39 14 0 25 5 25 10 0 6 -18 10 -40 10 l-40 0 0 -110z"/>
<path d="M1194 2995 c-227 -26 -391 -79 -423 -137 -13 -23 -13 -30 -1 -52 19 -37 101 -74 211 -96 130 -27 153 -24 41 6 -168 44 -246 89 -223 132 61 114 895 173 1378 97 189 -30 315 -88 287 -133 -6 -9 -26 -27 -44 -39 -18 -13 -28 -23 -23 -23 25 0 78 47 81 72 8 65 -143 123 -428 165 -149 21 -693 27 -856 8z"/>
<path d="M1455 2899 c-85 -13 -160 -36 -176 -56 -13 -15 -12 -15 11 0 40 26 153 39 335 39 182 0 295 -13 335 -39 23 -15 24 -15 12 0 -43 52 -328 83 -517 56z"/>
<path d="M1548 2840 c-294 -50 -519 -342 -569 -739 -14 -120 -8 -145 41 -165 187 -74 1072 -68 1221 9 34 18 38 45 8 63 -91 57 -740 81 -1047 39 -82 -11 -94 -11 -102 3 -8 13 -9 13 -10 -2 0 -25 9 -27 70 -17 139 22 423 31 635 20 302 -17 462 -43 452 -75 -6 -19 -132 -44 -269 -55 -359 -29 -914 2 -967 54 -11 11 -11 30 -2 108 54 461 360 773 705 719 103 -16 176 -51 246 -118 71 -68 116 -136 200 -305 82 -163 118 -211 182 -243 87 -43 173 -29 244 39 54 52 71 108 54 182 -26 118 -153 170 -239 97 -60 -50 -64 -133 -9 -179 61 -51 149 -17 147 57 -1 33 -1 33 -9 -6 -12 -63 -59 -83 -119 -51 -32 16 -41 33 -41 76 0 133 184 158 236 33 55 -132 -72 -273 -213 -235 -70 19 -114 76 -209 264 -47 94 -101 192 -119 217 -125 170 -309 245 -517 210z"/>
<path d="M2298 2723 c7 -3 16 -2 19 1 4 3 -2 6 -13 5 -11 0 -14 -3 -6 -6z"/>
<path d="M2263 2713 c4 -3 10 -3 14 0 3 4 0 7 -7 7 -7 0 -10 -3 -7 -7z"/>
<path d="M1254 2508 c-4 -7 -3 -8 4 -4 12 7 16 16 8 16 -3 0 -8 -5 -12 -12z"/>
<path d="M1214 2448 c-4 -7 -3 -8 4 -4 7 4 12 9 12 12 0 8 -9 4 -16 -8z"/>
<path d="M2515 2380 c3 -5 8 -10 11 -10 3 0 2 5 -1 10 -3 6 -8 10 -11 10 -3 0 -2 -4 1 -10z"/>
<path d="M1140 2290 c0 -7 3 -10 7 -7 3 4 3 10 0 14 -4 3 -7 0 -7 -7z"/>
<path d="M1121 2224 c0 -11 3 -14 6 -6 3 7 2 16 -1 19 -3 4 -6 -2 -5 -13z"/>
<path d="M1103 2115 c0 -22 2 -30 4 -17 2 12 2 30 0 40 -3 9 -5 -1 -4 -23z"/>
</g>
<g id="layer110" fill="#857a79" stroke="none">
<path d="M1209 3293 c-9 -10 -15 -50 -17 -110 -3 -77 -1 -93 11 -93 11 0 15 19 19 90 4 96 16 122 46 104 14 -9 18 -29 20 -103 2 -72 6 -91 17 -91 12 0 15 18 15 93 0 78 -3 97 -18 110 -24 22 -76 22 -93 0z"/>
<path d="M1651 1729 c-1 -65 -22 -143 -56 -210 -10 -19 -65 -108 -123 -199 -157 -245 -200 -357 -188 -488 11 -130 79 -222 226 -306 87 -51 202 -152 227 -200 43 -83 35 -153 -28 -221 -90 -97 -230 -77 -274 39 -14 37 -15 51 -5 80 27 84 123 114 181 57 37 -38 39 -82 4 -117 -35 -35 -72 -29 -103 16 -20 29 -23 31 -17 10 21 -78 119 -80 151 -4 12 29 12 38 -2 74 -50 126 -238 71 -238 -69 1 -57 23 -102 71 -138 32 -25 45 -28 107 -28 61 0 77 4 110 27 156 108 128 298 -63 431 l-46 32 75 5 c221 17 373 208 317 401 -35 119 -129 194 -247 194 -53 0 -74 -5 -113 -28 -145 -85 -140 -286 9 -343 56 -21 108 -9 153 37 75 74 28 199 -74 199 -33 0 -85 -50 -85 -82 0 -26 25 -68 41 -68 5 0 0 9 -11 20 -27 27 -25 66 5 95 34 35 78 33 116 -4 53 -53 33 -138 -41 -176 -79 -41 -177 19 -196 122 -19 101 79 203 196 203 87 0 182 -70 211 -156 61 -179 -76 -360 -281 -372 -102 -6 -175 22 -245 92 -60 60 -85 121 -85 208 0 118 41 219 185 462 129 217 174 354 146 441 -8 26 -9 21 -10 -36z"/>
<path d="M1514 238 c-19 -23 -19 -23 2 -5 24 20 45 22 64 5 12 -11 12 -10 1 5 -18 23 -44 21 -67 -5z"/>
</g>
<g id="layer111" fill="#c87d34" stroke="none">
<path d="M1426 3294 c-24 -24 -22 -165 2 -187 35 -32 92 -11 92 34 0 25 -16 25 -23 -1 -3 -11 -13 -23 -22 -27 -28 -10 -45 24 -45 87 0 63 17 97 45 87 9 -4 19 -16 22 -27 3 -11 9 -20 14 -20 13 0 11 44 -3 58 -17 17 -64 15 -82 -4z"/>
<path d="M1559 3293 c-9 -10 -14 -42 -14 -93 0 -87 12 -110 56 -110 47 0 59 22 59 110 0 58 -4 83 -16 94 -20 21 -68 20 -85 -1z m71 -22 c5 -11 10 -43 10 -71 0 -60 -13 -90 -39 -90 -25 0 -31 19 -31 90 0 32 3 65 6 74 8 22 41 20 54 -3z"/>
<path d="M1690 3200 l0 -110 40 0 c45 0 55 17 13 22 -24 2 -29 8 -31 36 -3 27 1 35 17 39 27 7 27 23 1 23 -17 0 -20 7 -20 50 0 28 -4 50 -10 50 -6 0 -10 -43 -10 -110z"/>
<path d="M1790 3200 l0 -110 40 0 c22 0 40 5 40 10 0 6 -11 10 -25 10 -22 0 -25 4 -25 39 0 33 4 40 23 44 l22 4 -22 8 c-20 6 -23 14 -23 56 0 37 -4 49 -15 49 -12 0 -15 -19 -15 -110z"/>
<path d="M1890 3200 l0 -110 39 0 c22 0 43 5 46 10 4 6 -7 10 -24 10 -29 0 -31 2 -31 40 0 33 3 40 20 40 11 0 20 5 20 10 0 6 -9 10 -20 10 -17 0 -20 7 -20 40 0 38 2 40 30 40 17 0 30 5 30 10 0 6 -20 10 -45 10 l-45 0 0 -110z"/>
<path d="M2000 3200 l0 -110 40 0 c45 0 55 17 13 22 -24 2 -29 8 -31 36 -3 27 1 35 17 39 27 7 27 23 1 23 -17 0 -20 7 -20 40 0 38 2 40 30 40 17 0 30 5 30 10 0 6 -18 10 -40 10 l-40 0 0 -110z"/>
<path d="M1235 2999 c-182 -18 -320 -50 -406 -96 -118 -63 -76 -137 107 -183 110 -28 145 -24 46 6 -306 90 -235 175 191 230 166 21 615 30 787 15 262 -23 437 -64 488 -114 31 -31 23 -58 -23 -83 -19 -10 -32 -20 -30 -22 10 -11 76 42 82 66 19 77 -216 151 -570 181 -147 13 -540 12 -672 0z"/>
<path d="M1490 2904 c-65 -8 -180 -35 -185 -44 -3 -5 9 -4 27 1 116 34 495 30 599 -5 36 -12 41 -12 25 -1 -47 35 -333 65 -466 49z"/>
<path d="M1274 2838 c-4 -7 -3 -8 4 -4 7 4 12 9 12 12 0 8 -9 4 -16 -8z"/>
<path d="M1549 2840 c-291 -46 -525 -351 -568 -743 -12 -103 -6 -139 27 -156 78 -42 505 -69 812 -52 304 17 450 46 450 89 0 28 -63 50 -195 69 -130 19 -719 23 -825 5 -56 -9 -48 -9 55 -4 302 17 712 0 867 -34 103 -23 104 -43 3 -68 -245 -62 -1094 -41 -1164 28 -22 23 2 195 45 326 49 146 103 239 199 337 63 64 97 90 155 117 181 85 387 68 527 -45 69 -56 127 -140 217 -318 117 -228 165 -275 281 -275 105 0 181 57 205 155 37 149 -122 276 -235 187 -87 -68 -52 -208 51 -208 39 0 84 37 84 67 -1 11 -6 6 -14 -13 -35 -80 -156 -48 -156 41 0 100 95 156 178 105 52 -32 74 -75 69 -142 -10 -156 -193 -222 -306 -109 -25 25 -68 98 -121 202 -122 242 -180 317 -291 382 -87 50 -236 75 -350 57z"/>
<path d="M2363 2743 c4 -3 10 -3 14 0 3 4 0 7 -7 7 -7 0 -10 -3 -7 -7z"/>
<path d="M2333 2733 c4 -3 10 -3 14 0 3 4 0 7 -7 7 -7 0 -10 -3 -7 -7z"/>
<path d="M2303 2723 c4 -3 10 -3 14 0 3 4 0 7 -7 7 -7 0 -10 -3 -7 -7z"/>
<path d="M1078 2693 c6 -2 18 -2 25 0 6 3 1 5 -13 5 -14 0 -19 -2 -12 -5z"/>
<path d="M1150 2320 c0 -7 3 -10 7 -7 3 4 3 10 0 14 -4 3 -7 0 -7 -7z"/>
<path d="M1130 2260 c0 -7 3 -10 7 -7 3 4 3 10 0 14 -4 3 -7 0 -7 -7z"/>
<path d="M1120 2230 c0 -7 3 -10 7 -7 3 4 3 10 0 14 -4 3 -7 0 -7 -7z"/>
<path d="M1111 2184 c0 -11 3 -14 6 -6 3 7 2 16 -1 19 -3 4 -6 -2 -5 -13z"/>
<path d="M1102 2120 c0 -19 2 -27 5 -17 2 9 2 25 0 35 -3 9 -5 1 -5 -18z"/>
<path d="M1143 2033 c9 -2 23 -2 30 0 6 3 -1 5 -18 5 -16 0 -22 -2 -12 -5z"/>
</g>
<g id="layer112" fill="#d7852e" stroke="none">
<path d="M1427 3292 c-25 -28 -24 -163 1 -185 35 -32 92 -11 92 34 0 27 -17 23 -24 -6 -8 -30 -41 -34 -56 -6 -5 11 -10 43 -10 71 0 28 5 60 10 71 15 28 48 24 56 -6 7 -29 24 -33 24 -6 0 46 -62 67 -93 33z"/>
<path d="M1562 3298 c-8 -8 -12 -45 -12 -100 0 -76 2 -89 19 -98 28 -14 57 -12 75 6 12 11 16 36 16 94 0 58 -4 83 -16 94 -18 19 -65 21 -82 4z m67 -22 c7 -9 11 -41 9 -82 -3 -70 -18 -94 -52 -81 -13 5 -16 21 -16 85 0 43 3 82 7 85 11 12 40 8 52 -7z"/>
<path d="M1690 3200 l0 -110 40 0 c22 0 40 5 40 10 0 6 -13 10 -30 10 -28 0 -30 3 -30 35 0 27 5 38 22 44 l22 8 -22 5 c-19 5 -22 13 -22 57 0 28 -4 51 -10 51 -6 0 -10 -43 -10 -110z"/>
<path d="M1790 3200 l0 -110 40 0 c22 0 40 5 40 10 0 6 -11 10 -25 10 -22 0 -25 4 -25 39 0 33 4 40 23 44 l22 4 -22 2 c-21 1 -23 6 -23 56 0 42 -3 55 -15 55 -12 0 -15 -19 -15 -110z"/>
<path d="M1895 3208 c1 -57 3 -106 4 -110 2 -12 71 -9 71 2 0 6 -11 10 -25 10 -22 0 -25 4 -25 39 0 33 4 40 23 44 l22 4 -22 2 c-20 1 -23 6 -23 46 0 41 2 45 25 45 14 0 25 5 25 10 0 6 -18 10 -39 10 l-40 0 4 -102z"/>
<path d="M2000 3200 l0 -110 40 0 c22 0 40 5 40 10 0 6 -13 10 -30 10 -28 0 -30 3 -30 35 0 27 5 38 22 44 l22 8 -22 5 c-18 5 -22 13 -22 47 0 39 2 41 30 41 17 0 30 5 30 10 0 6 -18 10 -40 10 l-40 0 0 -110z"/>
<path d="M1251 2999 c-260 -23 -432 -75 -477 -144 -16 -25 -16 -27 3 -53 25 -35 80 -62 173 -84 109 -26 129 -21 30 8 -93 28 -176 68 -184 91 -23 58 99 104 364 138 171 23 646 31 821 16 247 -23 422 -66 469 -116 20 -22 22 -28 11 -52 -10 -26 -10 -27 4 -9 8 11 15 24 15 29 0 79 -233 149 -589 177 -155 12 -502 11 -640 -1z"/>
<path d="M1469 2899 c-42 -5 -94 -16 -115 -24 -21 -9 -28 -13 -14 -10 14 3 83 11 154 17 135 12 373 0 430 -21 15 -6 25 -7 21 -2 -20 33 -325 59 -476 40z"/>
<path d="M1570 2840 c-69 -9 -118 -24 -195 -63 -75 -37 -205 -167 -258 -257 -81 -140 -136 -332 -137 -477 0 -75 2 -84 23 -97 67 -44 488 -73 810 -56 366 19 518 60 433 115 -55 36 -364 66 -651 63 l-150 -1 215 -8 c261 -9 427 -24 516 -47 111 -28 95 -52 -53 -77 -283 -48 -972 -31 -1091 28 -26 12 -27 16 -25 88 3 134 58 318 135 447 46 78 161 197 227 236 186 108 418 98 572 -26 64 -52 120 -134 210 -310 118 -231 169 -281 284 -281 104 0 183 58 203 150 24 104 -34 202 -128 218 -77 13 -152 -47 -154 -124 -1 -40 26 -90 53 -99 7 -2 1 7 -13 22 -20 19 -26 35 -26 68 0 50 19 82 60 103 85 44 190 -29 190 -132 0 -78 -34 -131 -105 -164 -78 -36 -166 -13 -222 57 -17 22 -65 109 -108 194 -108 217 -171 301 -272 363 -89 56 -223 82 -343 67z"/>
<path d="M1078 2693 c7 -3 16 -2 19 1 4 3 -2 6 -13 5 -11 0 -14 -3 -6 -6z"/>
<path d="M2516 2283 c-6 -14 -5 -15 5 -6 7 7 10 15 7 18 -3 3 -9 -2 -12 -12z"/>
<path d="M1102 2120 c0 -14 2 -19 5 -12 2 6 2 18 0 25 -3 6 -5 1 -5 -13z"/>
<path d="M1328 2053 c17 -2 47 -2 65 0 17 2 3 4 -33 4 -36 0 -50 -2 -32 -4z"/>
<path d="M1218 2043 c12 -2 30 -2 40 0 9 3 -1 5 -23 4 -22 0 -30 -2 -17 -4z"/>
<path d="M1138 2033 c6 -2 18 -2 25 0 6 3 1 5 -13 5 -14 0 -19 -2 -12 -5z"/>
</g>
<g id="layer113" fill="#8c827f" stroke="none">
<path d="M1209 3294 c-8 -10 -15 -52 -17 -110 -4 -79 -2 -94 11 -94 12 0 16 18 19 90 3 96 15 123 46 104 14 -9 18 -29 20 -103 2 -72 6 -91 17 -91 22 0 21 167 -1 198 -18 27 -75 30 -95 6z"/>
<path d="M1655 1754 c12 -91 -42 -220 -179 -429 -151 -230 -188 -321 -190 -460 -1 -79 2 -97 27 -147 37 -76 87 -125 193 -188 102 -62 206 -156 237 -215 79 -152 -84 -330 -233 -253 -34 17 -51 35 -69 71 -21 43 -22 53 -12 87 26 88 132 122 185 59 33 -39 34 -82 1 -114 -30 -31 -61 -32 -93 -2 -16 14 -23 17 -20 7 8 -24 51 -44 81 -36 44 11 67 41 67 87 0 53 -51 109 -99 109 -163 0 -200 -214 -50 -290 74 -38 157 -22 227 44 118 110 82 267 -91 393 l-52 38 76 6 c96 8 172 42 234 104 66 65 90 122 90 215 0 117 -49 200 -149 253 -63 33 -157 30 -219 -6 -96 -57 -132 -165 -85 -257 43 -84 126 -117 202 -81 53 26 78 61 80 112 2 100 -99 155 -165 90 -34 -35 -37 -70 -8 -102 l21 -24 -16 25 c-23 35 -20 67 9 95 34 35 78 33 116 -4 90 -91 -35 -236 -151 -176 -93 48 -117 172 -48 251 116 132 322 77 373 -101 21 -72 13 -135 -26 -203 -96 -169 -342 -204 -493 -70 -65 56 -88 106 -94 198 -7 127 31 232 163 450 136 223 189 368 167 453 -7 27 -10 31 -7 11z"/>
<path d="M1543 253 c4 -3 10 -3 14 0 3 4 0 7 -7 7 -7 0 -10 -3 -7 -7z"/>
<path d="M1509 233 c-13 -16 -12 -17 4 -4 16 13 21 21 13 21 -2 0 -10 -8 -17 -17z"/>
<path d="M1490 200 c0 -7 3 -10 7 -7 3 4 3 10 0 14 -4 3 -7 0 -7 -7z"/>
</g>
<g id="layer114" fill="#f39320" stroke="none">
<path d="M1426 3288 c-25 -35 -22 -152 4 -178 11 -11 29 -20 39 -20 25 0 51 26 51 51 0 27 -17 23 -24 -6 -7 -27 -34 -33 -54 -13 -7 7 -12 40 -12 78 0 38 5 71 12 78 20 20 47 14 54 -13 7 -29 24 -33 24 -6 0 48 -67 68 -94 29z"/>
<path d="M1568 3299 c-15 -8 -18 -25 -18 -100 0 -87 1 -90 26 -101 21 -10 31 -9 52 3 25 14 27 20 30 93 2 63 -1 82 -14 97 -19 21 -49 24 -76 8z m66 -25 c9 -23 7 -137 -3 -152 -4 -8 -19 -12 -32 -10 -23 3 -24 8 -27 77 -2 41 -1 80 2 88 7 18 53 16 60 -3z"/>
<path d="M1690 3200 l0 -110 40 0 c22 0 40 5 40 10 0 6 -13 10 -30 10 -28 0 -30 2 -30 40 0 35 3 40 23 41 l22 0 -22 9 c-20 8 -23 17 -23 60 0 27 -4 50 -10 50 -6 0 -10 -43 -10 -110z"/>
<path d="M1790 3200 l0 -110 40 0 c22 0 40 5 40 10 0 6 -13 10 -30 10 -27 0 -29 2 -27 37 2 30 7 38 27 44 l25 6 -25 4 c-23 4 -25 8 -25 57 0 35 -4 52 -12 52 -10 0 -13 -29 -13 -110z"/>
<path d="M1900 3200 l0 -110 35 0 c19 0 35 5 35 10 0 6 -11 10 -25 10 -22 0 -25 4 -25 39 0 33 4 40 23 44 l22 4 -22 2 c-20 1 -23 6 -23 46 0 41 2 45 25 45 14 0 25 5 25 10 0 6 -16 10 -35 10 l-35 0 0 -110z"/>
<path d="M2000 3200 l0 -110 40 0 c22 0 40 5 40 10 0 6 -13 10 -30 10 -28 0 -30 2 -30 40 0 35 3 40 23 41 l22 0 -22 9 c-19 8 -23 17 -23 50 0 38 2 40 30 40 17 0 30 5 30 10 0 6 -18 10 -40 10 l-40 0 0 -110z"/>
<path d="M1268 2999 c-195 -16 -376 -56 -445 -98 -98 -60 -68 -124 78 -169 36 -11 88 -23 115 -26 43 -6 39 -4 -25 14 -153 43 -225 94 -190 136 33 40 147 72 354 100 154 21 665 30 836 14 291 -26 479 -84 479 -147 0 -9 3 -14 6 -10 14 13 -10 49 -49 71 -136 79 -479 128 -878 125 -101 -1 -228 -5 -281 -10z"/>
<path d="M1495 2900 c-45 -5 -96 -13 -115 -18 -29 -9 -24 -9 25 -4 77 9 362 9 440 0 l60 -6 -53 13 c-71 17 -258 25 -357 15z"/>
<path d="M1323 2863 c4 -3 10 -3 14 0 3 4 0 7 -7 7 -7 0 -10 -3 -7 -7z"/>
<path d="M1913 2863 c4 -3 10 -3 14 0 3 4 0 7 -7 7 -7 0 -10 -3 -7 -7z"/>
<path d="M1491 2824 c-241 -65 -441 -328 -500 -658 -16 -85 -14 -201 2 -215 83 -68 874 -86 1164 -26 63 13 113 37 113 55 0 37 -148 68 -355 75 l-140 4 129 -9 c139 -10 297 -34 327 -51 159 -84 -733 -131 -1121 -58 -103 19 -110 24 -110 83 2 177 89 417 207 568 189 240 520 290 740 111 62 -50 121 -138 208 -312 95 -188 150 -253 230 -269 95 -20 196 22 235 98 27 53 27 143 0 187 -52 86 -166 102 -232 31 -36 -39 -39 -111 -7 -152 11 -14 24 -26 29 -26 5 0 -2 11 -15 25 -37 36 -35 106 4 145 79 80 207 28 219 -89 6 -64 -2 -92 -35 -132 -77 -92 -212 -88 -292 7 -17 22 -64 104 -102 184 -138 283 -221 371 -398 424 -68 20 -225 20 -300 0z"/>
<path d="M2443 2253 c9 -2 23 -2 30 0 6 3 -1 5 -18 5 -16 0 -22 -2 -12 -5z"/>
<path d="M1553 2063 c43 -2 110 -2 150 0 40 1 5 3 -78 3 -82 0 -115 -2 -72 -3z"/>
<path d="M1333 2053 c15 -2 39 -2 55 0 15 2 2 4 -28 4 -30 0 -43 -2 -27 -4z"/>
<path d="M1223 2043 c9 -2 23 -2 30 0 6 3 -1 5 -18 5 -16 0 -22 -2 -12 -5z"/>
<path d="M1143 2033 c4 -3 10 -3 14 0 3 4 0 7 -7 7 -7 0 -10 -3 -7 -7z"/>
</g>
<g id="layer115" fill="#978d8b" stroke="none">
<path d="M1209 3294 c-8 -10 -15 -52 -17 -110 -4 -82 -2 -94 12 -94 13 0 16 13 16 83 0 95 15 130 47 111 15 -9 19 -27 21 -103 2 -72 6 -91 17 -91 22 0 21 167 -1 198 -18 27 -75 30 -95 6z"/>
<path d="M1651 1764 c0 -11 3 -14 6 -6 3 7 2 16 -1 19 -3 4 -6 -2 -5 -13z"/>
<path d="M1652 1680 c-15 -85 -60 -176 -169 -345 -123 -191 -138 -219 -167 -305 -35 -108 -41 -174 -22 -251 28 -108 82 -171 210 -247 95 -56 209 -160 238 -216 44 -85 19 -184 -59 -240 -111 -78 -257 -12 -257 117 0 44 4 53 37 83 30 28 45 34 81 34 37 0 48 -5 70 -31 33 -39 34 -82 1 -114 -30 -31 -68 -32 -96 -2 -13 13 -20 16 -17 7 7 -24 51 -44 81 -36 41 10 67 44 67 89 0 51 -52 107 -99 107 -163 0 -200 -214 -50 -290 146 -75 323 71 288 238 -13 65 -54 121 -138 187 l-62 50 75 6 c131 11 242 84 297 194 32 66 33 178 2 245 -44 97 -130 153 -234 154 -80 0 -145 -33 -187 -96 -39 -60 -39 -147 1 -207 69 -104 206 -101 258 6 38 78 -13 163 -96 163 -37 0 -85 -50 -84 -87 1 -26 2 -26 9 7 17 72 89 93 141 41 23 -24 29 -38 29 -74 0 -37 -6 -51 -30 -76 -57 -56 -130 -53 -191 8 -64 63 -65 152 -3 221 44 48 90 70 148 70 58 0 111 -22 154 -63 55 -52 76 -102 76 -182 1 -60 -3 -77 -30 -125 -61 -109 -170 -166 -303 -158 -86 5 -138 27 -202 85 -69 63 -84 102 -84 223 1 95 4 112 33 185 18 44 70 141 114 215 45 74 100 175 124 225 40 84 72 207 62 237 -3 7 -10 -16 -16 -52z"/>
<path d="M1630 856 c0 -2 8 -10 18 -17 15 -13 16 -12 3 4 -13 16 -21 21 -21 13z"/>
</g>
<g id="layer116" fill="#a59c9a" stroke="none">
<path d="M1212 3297 c-15 -18 -18 -200 -3 -205 8 -3 11 22 11 80 0 96 15 131 47 112 15 -9 19 -27 21 -103 2 -72 6 -91 17 -91 22 0 21 167 -1 198 -17 25 -74 31 -92 9z"/>
<path d="M1655 1693 c-17 -100 -53 -175 -178 -368 -111 -171 -162 -277 -183 -375 -37 -175 31 -314 200 -412 191 -111 289 -232 271 -338 -15 -91 -113 -167 -201 -157 -116 13 -183 148 -112 225 52 57 120 61 163 10 32 -38 32 -81 0 -113 -26 -27 -53 -31 -88 -14 -21 10 -21 10 -3 -5 29 -23 60 -20 95 10 42 35 43 90 4 134 -53 58 -152 45 -194 -24 -27 -44 -25 -123 4 -167 28 -42 98 -79 152 -79 90 1 184 77 203 167 23 107 -31 205 -165 300 l-42 30 77 5 c132 8 248 83 302 195 29 60 32 177 6 236 -72 164 -272 215 -390 101 -68 -66 -83 -142 -45 -222 61 -126 237 -124 279 3 22 68 -45 158 -107 142 -12 -3 -8 -5 10 -6 17 -1 40 -13 58 -30 23 -24 29 -38 29 -74 0 -37 -6 -51 -30 -75 -58 -58 -137 -55 -194 8 -61 68 -61 153 2 222 45 50 86 68 149 68 86 -1 162 -50 206 -135 34 -64 30 -165 -8 -234 -80 -145 -270 -204 -420 -132 -119 57 -175 144 -175 276 0 109 36 209 136 378 147 247 184 330 199 435 8 59 -1 72 -10 15z"/>
</g>
<g id="layer117" fill="#aba1a0" stroke="none">
<path d="M1212 3298 c-15 -15 -17 -208 -2 -208 6 0 10 34 10 81 0 87 10 119 39 119 26 0 31 -19 31 -116 0 -68 3 -84 15 -84 22 0 22 166 -1 198 -17 25 -71 31 -92 10z"/>
<path d="M1650 1666 c-16 -76 -66 -175 -170 -337 -105 -163 -151 -251 -176 -335 -23 -78 -23 -185 0 -252 23 -69 106 -158 185 -201 131 -69 243 -179 270 -264 38 -115 -73 -248 -196 -234 -150 17 -194 205 -61 261 42 17 47 17 80 2 62 -29 79 -108 32 -145 -30 -23 -54 -26 -87 -10 -21 10 -21 10 -3 -5 29 -23 60 -20 95 10 25 21 31 34 31 65 0 82 -86 131 -165 93 -110 -52 -99 -216 18 -273 81 -39 172 -19 235 54 42 47 53 77 53 141 0 88 -61 180 -164 246 l-52 33 70 6 c87 7 136 23 201 65 92 61 139 150 138 259 -1 86 -27 147 -89 204 -96 88 -224 90 -315 5 -126 -118 -64 -314 98 -314 121 0 179 134 92 213 -19 16 -41 27 -58 26 -25 -1 -25 -2 7 -9 141 -33 90 -234 -55 -217 -99 11 -166 137 -120 225 19 37 75 89 109 101 97 37 216 -11 271 -109 27 -47 31 -65 31 -125 0 -86 -29 -149 -93 -206 -132 -115 -337 -106 -455 20 -63 68 -81 120 -75 228 7 116 37 195 145 376 133 223 172 310 187 415 9 60 0 52 -14 -12z"/>
</g>
<g id="layer118" fill="#b5adac" stroke="none">
<path d="M1216 3294 c-12 -12 -16 -37 -16 -110 0 -56 4 -94 10 -94 6 0 10 34 10 81 0 87 10 119 39 119 26 0 31 -19 31 -116 0 -68 3 -84 15 -84 22 0 22 166 -1 198 -18 26 -65 30 -88 6z"/>
<path d="M1648 1655 c-11 -59 -74 -184 -163 -320 -154 -235 -199 -342 -198 -476 1 -139 76 -252 219 -328 76 -40 182 -127 216 -178 35 -50 52 -113 44 -156 -15 -78 -107 -157 -184 -157 -132 0 -209 151 -122 238 34 34 77 45 119 31 60 -21 81 -100 39 -148 l-23 -26 28 24 c58 51 18 154 -64 167 -78 13 -149 -51 -149 -134 0 -167 207 -231 325 -101 45 50 55 76 55 145 0 90 -51 168 -156 240 l-57 39 76 6 c192 16 331 150 331 319 -1 226 -240 358 -398 219 -78 -69 -96 -164 -45 -246 33 -53 80 -76 146 -71 49 4 61 10 90 41 18 20 33 47 32 59 0 18 -3 15 -12 -12 -16 -46 -68 -80 -123 -80 -35 0 -51 7 -80 32 -91 80 -83 205 19 275 31 22 53 28 106 31 60 3 71 0 120 -30 64 -39 109 -109 118 -185 19 -167 -129 -315 -318 -316 -118 0 -235 72 -285 178 -43 91 -27 251 38 380 12 22 56 99 98 171 127 213 175 323 168 381 -3 25 -4 23 -10 -12z"/>
<path d="M1717 970 c41 -9 63 -27 79 -65 9 -20 13 -24 14 -11 0 30 -63 86 -96 85 -29 -1 -29 -1 3 -9z"/>
<path d="M1644 948 l-19 -23 25 20 c14 11 27 21 29 22 2 2 0 3 -6 3 -5 0 -18 -10 -29 -22z"/>
</g>
<g id="layer119" fill="#c5bfbd" stroke="none">
<path d="M1645 1643 c-10 -56 -70 -170 -172 -328 -150 -232 -183 -314 -183 -454 0 -151 57 -234 228 -336 93 -55 199 -151 227 -205 12 -21 19 -57 19 -92 1 -47 -4 -63 -29 -100 -70 -99 -188 -117 -267 -41 -57 54 -61 139 -8 191 71 72 170 37 183 -63 4 -27 4 -26 6 7 1 47 -37 95 -84 104 -46 8 -119 -25 -139 -65 -36 -69 -11 -164 55 -208 131 -87 309 17 309 179 -1 93 -51 172 -156 244 l-57 39 75 6 c139 12 259 91 309 204 47 105 19 246 -63 321 -53 48 -100 66 -169 66 -135 0 -242 -121 -211 -239 30 -110 132 -165 222 -118 34 17 70 61 70 84 -1 9 -7 1 -15 -16 -29 -66 -128 -94 -189 -53 -110 72 -95 240 26 299 155 74 328 -46 328 -229 0 -167 -198 -318 -370 -281 -186 40 -288 182 -259 361 19 118 47 181 182 407 88 148 132 244 143 313 8 51 -1 53 -11 3z"/>
<path d="M1698 973 c6 -2 18 -2 25 0 6 3 1 5 -13 5 -14 0 -19 -2 -12 -5z"/>
<path d="M1759 954 c13 -9 29 -31 37 -48 7 -17 13 -23 14 -14 0 20 -47 78 -63 78 -6 0 -1 -7 12 -16z"/>
<path d="M1558 133 c6 -2 18 -2 25 0 6 3 1 5 -13 5 -14 0 -19 -2 -12 -5z"/>
</g>
<g id="layer120" fill="#d3d0d0" stroke="none">
<path d="M1216 3295 c-12 -13 -16 -37 -16 -111 0 -121 18 -124 22 -3 3 96 15 120 52 106 13 -5 16 -23 16 -102 0 -78 3 -95 15 -95 12 0 15 16 15 83 0 46 -6 93 -13 107 -15 31 -66 39 -91 15z"/>
<path d="M1650 1658 c-1 -38 -52 -147 -120 -253 -214 -336 -246 -411 -238 -563 7 -142 57 -214 220 -314 212 -129 291 -249 243 -366 -45 -105 -173 -155 -256 -99 -77 52 -100 133 -56 198 59 88 181 69 197 -32 7 -43 8 -43 9 -8 1 43 -25 81 -69 99 -44 18 -100 0 -140 -47 -30 -33 -32 -41 -28 -92 5 -68 34 -112 93 -141 130 -63 285 42 285 195 0 90 -52 169 -156 241 l-57 39 77 7 c193 18 328 149 328 318 0 116 -61 214 -158 255 -52 21 -146 19 -193 -4 -78 -40 -131 -133 -115 -204 30 -143 184 -197 269 -95 14 16 25 37 25 46 -1 9 -7 2 -15 -15 -43 -99 -193 -94 -245 8 -61 119 34 262 174 262 228 0 319 -296 139 -453 -84 -74 -192 -102 -294 -76 -187 48 -275 193 -235 386 19 92 58 174 171 365 49 81 101 179 117 218 28 69 46 147 34 147 -3 0 -6 -10 -6 -22z"/>
<path d="M1770 945 c13 -14 26 -25 28 -25 3 0 -5 11 -18 25 -13 14 -26 25 -28 25 -3 0 5 -11 18 -25z"/>
<path d="M1644 948 c-4 -7 -3 -8 4 -4 12 7 16 16 8 16 -3 0 -8 -5 -12 -12z"/>
</g>
<g id="layer121" fill="#e3e0df" stroke="none">
<path d="M1216 3294 c-12 -12 -16 -37 -16 -110 0 -56 4 -94 10 -94 6 0 10 36 10 88 0 98 7 115 41 110 23 -3 24 -6 27 -100 2 -82 5 -98 19 -98 13 0 15 13 11 96 -3 80 -7 99 -23 110 -25 19 -60 18 -79 -2z"/>
<path d="M1350 3115 c0 -24 5 -35 15 -35 10 0 15 11 15 35 0 24 -5 35 -15 35 -10 0 -15 -11 -15 -35z"/>
<path d="M1647 1640 c-11 -56 -58 -146 -154 -296 -164 -254 -203 -345 -203 -478 0 -149 56 -235 219 -335 224 -138 305 -268 238 -385 -37 -65 -88 -99 -155 -104 -48 -3 -63 0 -92 20 -112 76 -104 209 15 250 28 9 42 17 32 18 -29 0 -80 -25 -106 -53 -31 -34 -40 -111 -18 -154 25 -47 80 -90 127 -98 122 -21 239 81 240 208 0 88 -47 163 -149 237 -34 25 -61 47 -61 50 0 3 33 5 73 6 88 1 163 31 231 94 68 63 96 127 96 219 -1 119 -50 203 -145 247 -128 60 -281 -1 -315 -126 -36 -135 103 -266 220 -205 30 16 70 60 70 79 0 6 -9 -3 -20 -21 -56 -92 -190 -82 -241 18 -62 122 32 260 177 263 98 1 198 -78 225 -177 14 -53 7 -143 -16 -187 -30 -58 -93 -116 -158 -146 -156 -71 -351 -7 -421 139 -69 142 -35 286 134 567 106 176 179 339 167 373 -2 6 -7 -4 -10 -23z"/>
<path d="M1755 960 c3 -5 8 -10 11 -10 3 0 2 5 -1 10 -3 6 -8 10 -11 10 -3 0 -2 -4 1 -10z"/>
<path d="M1785 930 c3 -5 8 -10 11 -10 3 0 2 5 -1 10 -3 6 -8 10 -11 10 -3 0 -2 -4 1 -10z"/>
<path d="M1571 317 c2 -2 18 -11 34 -21 l30 -17 -24 20 c-13 12 -28 21 -34 21 -6 0 -8 -1 -6 -3z"/>
<path d="M1641 234 c0 -11 3 -14 6 -6 3 7 2 16 -1 19 -3 4 -6 -2 -5 -13z"/>
<path d="M1614 158 l-19 -23 23 19 c21 18 27 26 19 26 -2 0 -12 -10 -23 -22z"/>
</g>
<g id="layer122" fill="#f6f7f7" stroke="none">
<path d="M1217 3292 c-13 -15 -17 -39 -17 -110 0 -55 4 -92 10 -92 6 0 10 36 10 88 0 98 7 115 41 110 19 -2 25 -11 32 -48 4 -25 6 -66 3 -92 -2 -27 0 -48 5 -48 11 0 11 2 9 105 -1 62 -5 83 -17 93 -24 17 -57 15 -76 -6z"/>
<path d="M1359 3145 c-6 -31 -5 -55 1 -55 13 0 18 24 9 45 -4 11 -8 16 -10 10z"/>
<path d="M1651 1654 c0 -11 3 -14 6 -6 3 7 2 16 -1 19 -3 4 -6 -2 -5 -13z"/>
<path d="M1641 1614 c0 -11 3 -14 6 -6 3 7 2 16 -1 19 -3 4 -6 -2 -5 -13z"/>
<path d="M1606 1532 c-16 -31 -71 -124 -123 -205 -154 -239 -193 -335 -193 -469 0 -140 68 -239 227 -330 168 -97 261 -215 251 -319 -12 -125 -161 -208 -265 -149 -52 29 -75 64 -80 119 -5 57 22 105 70 126 17 8 25 14 16 15 -23 0 -67 -36 -84 -70 -60 -116 74 -261 204 -221 101 30 167 119 159 214 -8 95 -58 166 -170 241 -29 20 -51 36 -48 36 181 8 240 28 321 109 64 64 89 124 89 211 0 115 -57 209 -151 250 -164 70 -345 -55 -309 -214 24 -105 133 -166 220 -121 30 16 70 60 70 79 0 6 -9 -3 -20 -21 -55 -91 -189 -81 -241 17 -25 46 -25 125 0 166 45 74 147 117 228 95 63 -17 124 -68 156 -130 54 -108 28 -232 -67 -319 -69 -63 -125 -85 -221 -86 -73 -1 -87 2 -150 34 -39 19 -74 33 -80 31 -5 -1 -7 0 -3 4 3 4 -9 27 -28 52 -104 136 -79 303 90 588 89 150 172 312 164 320 -2 2 -17 -21 -32 -53z"/>
<path d="M1800 900 c0 -7 3 -10 7 -7 3 4 3 10 0 14 -4 3 -7 0 -7 -7z"/>
<path d="M1538 323 c7 -3 16 -2 19 1 4 3 -2 6 -13 5 -11 0 -14 -3 -6 -6z"/>
<path d="M1573 313 c4 -3 10 -3 14 0 3 4 0 7 -7 7 -7 0 -10 -3 -7 -7z"/>
<path d="M1600 306 c0 -2 8 -10 18 -17 15 -13 16 -12 3 4 -13 16 -21 21 -21 13z"/>
<path d="M1640 240 c0 -7 3 -10 7 -7 3 4 3 10 0 14 -4 3 -7 0 -7 -7z"/>
<path d="M1640 200 c0 -7 3 -10 7 -7 3 4 3 10 0 14 -4 3 -7 0 -7 -7z"/>
</g>


</svg>
